<svg width="1216" height="314" viewBox="0 0 1216 314" fill="none" xmlns="http://www.w3.org/2000/svg">
<g clip-path="url(#clip0_157_195)">
<path d="M1138.96 312C1131 308.811 1123.34 307.725 1115.55 307.561C1107.88 307.397 1100.2 307.53 1092.43 307.53C1093.56 302.886 1094.55 297.79 1096.04 292.848C1101.28 275.419 1103.8 257.508 1106.04 239.535C1108.57 219.276 1110.2 198.956 1109.85 178.543C1109.42 152.747 1108.82 126.942 1106.27 101.249C1105.26 91.0785 1103.87 80.9285 1102.98 70.7478C1101.94 58.66 1102.46 46.6851 1107.59 35.3663C1110.96 27.9435 1115.74 21.7202 1123.03 17.7114C1137.39 9.81698 1152.61 14.8407 1159.42 29.6864C1163.08 37.6834 1164.69 46.2135 1165.85 54.8358C1167.79 69.1791 1168.24 83.6147 1168.06 98.0605C1167.83 117.356 1165.9 136.518 1162.38 155.464C1157.88 179.691 1152.8 203.815 1148.01 228.001C1143.43 251.172 1140.03 274.496 1138.98 298.118C1138.78 302.578 1138.95 307.048 1138.95 312.01L1138.96 312Z" fill="#237442"/>
<path d="M1111.01 159.688C1110.68 170.669 1110.33 181.957 1109.98 193.665C1106.12 191.881 1102.48 190.405 1099.03 188.56C1083.54 180.317 1071.76 168.27 1062.12 153.66C1052.46 139.05 1046.97 123.097 1044.56 105.965C1043.33 97.1583 1043.91 88.4539 1048.39 80.4467C1052.88 72.4395 1060.42 68.3077 1068.56 69.3842C1074.05 70.1121 1078.25 73.0341 1081.36 77.5452C1085.74 83.9018 1087.04 91.1503 1087.38 98.6552C1087.7 105.934 1087.6 113.245 1088.27 120.483C1089.37 132.448 1093.21 143.459 1101.4 152.563C1103.09 154.439 1105.11 156.039 1107.1 157.607C1108.11 158.397 1109.39 158.848 1111.02 159.699L1111.01 159.688Z" fill="#237442"/>
<path d="M1150.16 210.5C1151.62 202.267 1153.04 194.209 1154.47 186.191C1166.88 186.694 1174.99 175.477 1175.59 164.845C1175.94 158.581 1175.9 152.286 1175.98 146.012C1176.09 136.836 1178.47 128.49 1185.53 122.195C1188.07 119.929 1191.11 117.991 1194.24 116.648C1201 113.757 1207.21 115.9 1211.42 121.949C1214.64 126.593 1215.42 131.904 1215.8 137.358C1216.48 147.211 1215.51 156.93 1214.22 166.701C1212.9 176.841 1208.56 185.279 1201.68 192.527C1194.43 200.176 1185.25 204.564 1175.19 207.25C1167.08 209.413 1158.79 210.285 1150.17 210.51L1150.16 210.5Z" fill="#237442"/>
<rect x="1092" y="307" width="47" height="5" fill="#237442"/>
</g>
<g clip-path="url(#clip1_157_195)">
<path d="M799.396 312C797.268 311.144 795.219 310.852 793.135 310.808C791.084 310.764 789.03 310.8 786.952 310.8C787.254 309.553 787.52 308.185 787.918 306.859C789.319 302.18 789.994 297.371 790.593 292.546C791.268 287.108 791.705 281.653 791.611 276.173C791.496 269.248 791.337 262.32 790.653 255.423C790.384 252.692 790.01 249.967 789.774 247.234C789.494 243.989 789.634 240.775 791.007 237.736C791.908 235.743 793.187 234.073 795.137 232.996C798.975 230.877 803.047 232.226 804.868 236.211C805.848 238.358 806.276 240.648 806.587 242.963C807.106 246.813 807.226 250.688 807.18 254.567C807.117 259.747 806.6 264.891 805.659 269.977C804.456 276.481 803.097 282.957 801.817 289.45C800.593 295.67 799.681 301.932 799.401 308.273C799.349 309.471 799.393 310.671 799.393 312.003L799.396 312Z" fill="#237442"/>
<path d="M791.922 271.111C791.834 274.059 791.74 277.089 791.647 280.232C790.615 279.753 789.64 279.357 788.717 278.862C784.574 276.649 781.425 273.415 778.846 269.493C776.263 265.57 774.794 261.288 774.151 256.689C773.822 254.324 773.975 251.988 775.175 249.838C776.375 247.688 778.39 246.579 780.568 246.868C782.037 247.064 783.16 247.848 783.992 249.059C785.164 250.766 785.51 252.711 785.601 254.726C785.686 256.68 785.661 258.643 785.84 260.586C786.134 263.798 787.161 266.754 789.352 269.198C789.802 269.702 790.343 270.131 790.876 270.552C791.145 270.764 791.488 270.885 791.924 271.114L791.922 271.111Z" fill="#237442"/>
<path d="M802.391 284.752C802.781 282.542 803.163 280.378 803.544 278.226C806.864 278.361 809.033 275.35 809.192 272.495C809.286 270.814 809.275 269.124 809.297 267.439C809.327 264.976 809.964 262.736 811.85 261.046C812.531 260.437 813.344 259.917 814.181 259.557C815.988 258.78 817.649 259.356 818.775 260.98C819.637 262.226 819.846 263.652 819.948 265.116C820.129 267.761 819.868 270.371 819.525 272.994C819.171 275.716 818.009 277.981 816.169 279.927C814.231 281.98 811.776 283.158 809.085 283.879C806.916 284.46 804.7 284.694 802.394 284.754L802.391 284.752Z" fill="#237442"/>
<rect x="787" y="310" width="12" height="2" fill="#237442"/>
</g>
<g clip-path="url(#clip2_157_195)">
<path d="M663.448 312C659.053 310.235 654.823 309.633 650.519 309.542C646.283 309.451 642.041 309.525 637.749 309.525C638.372 306.953 638.922 304.132 639.745 301.396C642.637 291.745 644.032 281.828 645.268 271.877C646.663 260.66 647.564 249.408 647.372 238.106C647.133 223.823 646.805 209.535 645.393 195.309C644.837 189.678 644.066 184.058 643.578 178.421C643 171.728 643.289 165.097 646.124 158.83C647.984 154.72 650.627 151.275 654.653 149.055C662.58 144.684 670.99 147.465 674.749 155.685C676.774 160.113 677.658 164.836 678.299 169.61C679.371 177.552 679.62 185.545 679.524 193.544C679.394 204.227 678.328 214.837 676.383 225.328C673.899 238.742 671.092 252.099 668.449 265.49C665.92 278.32 664.038 291.234 663.459 304.314C663.351 306.783 663.442 309.258 663.442 312.006L663.448 312Z" fill="#237442"/>
<path d="M648.012 227.666C647.831 233.746 647.638 239.996 647.445 246.479C645.313 245.491 643.3 244.674 641.395 243.652C632.838 239.088 626.333 232.418 621.009 224.329C615.673 216.239 612.639 207.406 611.312 197.92C610.631 193.044 610.949 188.224 613.427 183.791C615.905 179.357 620.067 177.07 624.564 177.666C627.598 178.069 629.917 179.687 631.635 182.184C634.057 185.704 634.771 189.717 634.958 193.873C635.134 197.903 635.083 201.951 635.452 205.959C636.058 212.583 638.179 218.68 642.704 223.721C643.634 224.76 644.752 225.646 645.852 226.514C646.407 226.951 647.116 227.201 648.018 227.672L648.012 227.666Z" fill="#237442"/>
<path d="M669.634 255.8C670.44 251.242 671.228 246.78 672.016 242.341C678.872 242.619 683.352 236.409 683.68 230.522C683.873 227.053 683.851 223.568 683.896 220.094C683.958 215.013 685.274 210.392 689.17 206.907C690.576 205.652 692.254 204.579 693.984 203.835C697.715 202.235 701.146 203.421 703.471 206.77C705.251 209.342 705.682 212.282 705.892 215.302C706.267 220.758 705.728 226.139 705.019 231.549C704.287 237.164 701.889 241.836 698.089 245.849C694.086 250.084 689.016 252.513 683.459 254.001C678.979 255.199 674.403 255.681 669.64 255.806L669.634 255.8Z" fill="#237442"/>
<rect x="638" y="309" width="25" height="3" fill="#237442"/>
</g>
<g clip-path="url(#clip3_157_195)">
<path d="M205.396 312C203.268 311.144 201.219 310.852 199.135 310.808C197.084 310.764 195.03 310.8 192.952 310.8C193.254 309.553 193.52 308.185 193.918 306.859C195.319 302.18 195.994 297.371 196.593 292.546C197.268 287.108 197.705 281.653 197.611 276.173C197.496 269.248 197.337 262.32 196.653 255.423C196.384 252.692 196.01 249.967 195.774 247.234C195.494 243.989 195.634 240.775 197.007 237.736C197.908 235.743 199.187 234.073 201.137 232.996C204.975 230.877 209.047 232.226 210.868 236.211C211.848 238.358 212.276 240.648 212.587 242.963C213.106 246.813 213.226 250.688 213.18 254.567C213.117 259.747 212.6 264.891 211.659 269.977C210.456 276.481 209.097 282.957 207.817 289.45C206.593 295.67 205.681 301.932 205.401 308.273C205.349 309.471 205.393 310.671 205.393 312.003L205.396 312Z" fill="#237442"/>
<path d="M197.922 271.111C197.834 274.059 197.74 277.089 197.647 280.232C196.615 279.753 195.64 279.357 194.717 278.862C190.574 276.649 187.425 273.415 184.846 269.493C182.263 265.57 180.794 261.288 180.151 256.689C179.822 254.324 179.975 251.988 181.175 249.838C182.375 247.688 184.39 246.579 186.568 246.868C188.037 247.064 189.16 247.848 189.992 249.059C191.164 250.766 191.51 252.711 191.601 254.726C191.686 256.68 191.661 258.643 191.84 260.586C192.134 263.798 193.161 266.754 195.352 269.198C195.802 269.702 196.343 270.131 196.876 270.552C197.145 270.764 197.488 270.885 197.924 271.114L197.922 271.111Z" fill="#237442"/>
<path d="M208.391 284.752C208.781 282.542 209.163 280.378 209.544 278.226C212.864 278.361 215.033 275.35 215.192 272.495C215.286 270.814 215.275 269.124 215.297 267.439C215.327 264.976 215.964 262.736 217.85 261.046C218.531 260.437 219.344 259.917 220.181 259.557C221.988 258.78 223.649 259.356 224.775 260.98C225.637 262.226 225.846 263.652 225.948 265.116C226.129 267.761 225.868 270.371 225.525 272.994C225.171 275.716 224.009 277.981 222.169 279.927C220.231 281.98 217.776 283.158 215.085 283.879C212.916 284.46 210.7 284.694 208.394 284.754L208.391 284.752Z" fill="#237442"/>
<rect x="193" y="310" width="12" height="2" fill="#237442"/>
</g>
<g clip-path="url(#clip4_157_195)">
<path d="M366.479 312C362.501 310.395 358.671 309.848 354.775 309.765C350.94 309.683 347.1 309.75 343.214 309.75C343.779 307.412 344.277 304.847 345.021 302.36C347.639 293.587 348.902 284.571 350.021 275.524C351.284 265.327 352.1 255.098 351.926 244.824C351.71 231.839 351.412 218.85 350.134 205.917C349.631 200.798 348.933 195.689 348.492 190.564C347.968 184.48 348.23 178.452 350.796 172.755C352.48 169.018 354.872 165.886 358.517 163.868C365.694 159.894 373.306 162.423 376.71 169.896C378.542 173.921 379.343 178.215 379.923 182.555C380.894 189.775 381.119 197.041 381.032 204.312C380.914 214.025 379.949 223.67 378.188 233.207C375.94 245.402 373.399 257.545 371.007 269.719C368.717 281.382 367.013 293.122 366.489 305.012C366.392 307.257 366.474 309.507 366.474 312.005L366.479 312Z" fill="#237442"/>
<path d="M352.506 237.333C352.341 242.86 352.167 248.542 351.992 254.436C350.062 253.538 348.24 252.794 346.515 251.866C338.769 247.716 332.881 241.653 328.06 234.299C323.23 226.945 320.484 218.915 319.282 210.291C318.666 205.858 318.954 201.477 321.197 197.446C323.44 193.416 327.208 191.336 331.279 191.878C334.025 192.244 336.125 193.715 337.68 195.986C339.872 199.185 340.519 202.834 340.689 206.612C340.848 210.276 340.802 213.955 341.135 217.599C341.685 223.621 343.604 229.164 347.701 233.746C348.543 234.691 349.554 235.496 350.55 236.285C351.053 236.683 351.695 236.91 352.511 237.338L352.506 237.333Z" fill="#237442"/>
<path d="M372.08 262.909C372.809 258.765 373.522 254.709 374.236 250.673C380.442 250.926 384.497 245.281 384.795 239.929C384.97 236.776 384.949 233.607 384.99 230.449C385.047 225.83 386.238 221.629 389.764 218.461C391.037 217.32 392.557 216.345 394.122 215.669C397.5 214.213 400.606 215.292 402.711 218.337C404.323 220.674 404.713 223.348 404.903 226.093C405.241 231.053 404.754 235.945 404.112 240.863C403.45 245.967 401.278 250.214 397.839 253.863C394.215 257.713 389.626 259.921 384.595 261.273C380.539 262.362 376.397 262.801 372.085 262.915L372.08 262.909Z" fill="#237442"/>
<rect x="344" y="309" width="22" height="3" fill="#237442"/>
</g>
<g clip-path="url(#clip5_157_195)">
<path d="M80.6255 312C88.9523 308.662 96.9676 307.524 105.123 307.352C113.149 307.18 121.185 307.32 129.319 307.32C128.137 302.457 127.095 297.122 125.537 291.949C120.057 273.7 117.414 254.948 115.072 236.131C112.429 214.92 110.72 193.645 111.086 172.273C111.537 145.266 112.16 118.248 114.835 91.348C115.888 80.6997 117.35 70.0728 118.274 59.4138C119.37 46.7581 118.822 34.2206 113.449 22.3701C109.925 14.5985 104.918 8.08285 97.2899 3.88578C82.2694 -4.37954 66.3355 0.88021 59.212 16.4233C55.3763 24.796 53.7001 33.7268 52.486 42.7543C50.4554 57.7714 49.9826 72.8852 50.1653 88.0096C50.4124 108.211 52.4323 128.274 56.1176 148.11C60.8236 173.475 66.1421 198.733 71.149 224.055C75.9409 248.314 79.5081 272.734 80.604 297.466C80.8081 302.135 80.6362 306.815 80.6362 312.011L80.6255 312Z" fill="#237442"/>
<path d="M109.872 152.533C110.216 164.029 110.581 175.848 110.946 188.106C114.986 186.238 118.8 184.692 122.41 182.76C138.624 174.13 150.947 161.517 161.036 146.221C171.147 130.925 176.895 114.223 179.409 96.2857C180.698 87.065 180.097 77.9517 175.401 69.5683C170.706 61.1849 162.82 56.859 154.3 57.9861C148.551 58.7482 144.157 61.8075 140.901 66.5305C136.314 73.1857 134.96 80.7748 134.605 88.6322C134.272 96.2535 134.369 103.907 133.67 111.485C132.521 124.012 128.502 135.541 119.928 145.073C118.166 147.037 116.05 148.711 113.965 150.354C112.912 151.18 111.569 151.653 109.861 152.544L109.872 152.533Z" fill="#237442"/>
<path d="M68.9033 205.731C67.3776 197.112 65.8842 188.675 64.3907 180.281C51.4008 180.807 42.9128 169.063 42.2896 157.932C41.9243 151.374 41.9672 144.783 41.8813 138.213C41.7631 128.606 39.2704 119.869 31.889 113.278C29.2244 110.906 26.0441 108.877 22.7671 107.471C15.6973 104.444 9.19699 106.687 4.79181 113.02C1.41808 117.883 0.601524 123.443 0.203983 129.154C-0.505144 139.469 0.515562 149.645 1.8586 159.875C3.24463 170.491 7.78948 179.325 14.9882 186.914C22.5737 194.922 32.1792 199.516 42.7086 202.329C51.1966 204.594 59.8673 205.506 68.8926 205.742L68.9033 205.731Z" fill="#237442"/>
<rect x="81" y="307" width="48" height="5" fill="#237442"/>
</g>
<g clip-path="url(#clip6_157_195)">
<path d="M477.594 312C481.063 310.609 484.403 310.135 487.801 310.063C491.145 309.992 494.494 310.05 497.883 310.05C497.39 308.024 496.956 305.801 496.307 303.645C494.024 296.042 492.923 288.228 491.947 280.388C490.845 271.55 490.133 262.685 490.286 253.78C490.474 242.527 490.733 231.27 491.848 220.062C492.287 215.625 492.896 211.197 493.281 206.756C493.737 201.483 493.509 196.259 491.271 191.321C489.802 188.083 487.716 185.368 484.537 183.619C478.279 180.175 471.64 182.367 468.672 188.843C467.073 192.332 466.375 196.053 465.869 199.814C465.023 206.071 464.826 212.369 464.902 218.671C465.005 227.088 465.847 235.447 467.382 243.713C469.343 254.281 471.559 264.805 473.645 275.356C475.642 285.464 477.128 295.639 477.585 305.944C477.67 307.89 477.598 309.84 477.598 312.004L477.594 312Z" fill="#237442"/>
<path d="M489.78 245.555C489.923 250.345 490.075 255.27 490.228 260.377C491.911 259.599 493.5 258.955 495.004 258.15C501.76 254.554 506.895 249.299 511.098 242.925C515.311 236.552 517.706 229.593 518.754 222.119C519.291 218.277 519.04 214.48 517.084 210.987C515.128 207.494 511.842 205.691 508.291 206.161C505.896 206.478 504.065 207.753 502.709 209.721C500.797 212.494 500.233 215.656 500.085 218.93C499.947 222.106 499.987 225.295 499.696 228.452C499.217 233.672 497.543 238.475 493.97 242.447C493.236 243.265 492.354 243.963 491.486 244.647C491.047 244.992 490.487 245.189 489.775 245.56L489.78 245.555Z" fill="#237442"/>
<path d="M472.71 267.721C472.074 264.13 471.452 260.615 470.83 257.117C465.417 257.336 461.881 252.443 461.621 247.805C461.469 245.072 461.487 242.326 461.451 239.589C461.402 235.586 460.363 231.945 457.287 229.199C456.177 228.211 454.852 227.365 453.487 226.779C450.541 225.518 447.832 226.453 445.997 229.092C444.591 231.118 444.251 233.435 444.085 235.814C443.79 240.112 444.215 244.352 444.775 248.615C445.352 253.038 447.246 256.719 450.245 259.881C453.406 263.218 457.408 265.132 461.795 266.304C465.332 267.247 468.945 267.628 472.705 267.726L472.71 267.721Z" fill="#237442"/>
<rect x="478" y="310" width="20" height="2" fill="#237442"/>
</g>
<g clip-path="url(#clip7_157_195)">
<path d="M906.063 312C911.336 309.881 916.413 309.159 921.578 309.05C926.661 308.941 931.751 309.03 936.902 309.03C936.153 305.944 935.493 302.558 934.507 299.275C931.036 287.694 929.362 275.794 927.879 263.852C926.205 250.391 925.123 236.89 925.354 223.327C925.64 206.188 926.035 189.042 927.729 171.971C928.396 165.213 929.321 158.469 929.907 151.705C930.601 143.673 930.254 135.717 926.851 128.196C924.619 123.264 921.448 119.129 916.617 116.466C907.104 111.221 897.012 114.559 892.501 124.422C890.072 129.736 889.01 135.404 888.241 141.133C886.955 150.663 886.656 160.254 886.771 169.852C886.928 182.673 888.207 195.404 890.541 207.993C893.522 224.09 896.89 240.119 900.061 256.189C903.096 271.584 905.355 287.081 906.049 302.776C906.178 305.74 906.07 308.71 906.07 312.007L906.063 312Z" fill="#237442"/>
<path d="M924.585 210.8C924.803 218.095 925.035 225.596 925.266 233.375C927.824 232.19 930.24 231.209 932.527 229.983C942.795 224.506 950.6 216.501 956.99 206.794C963.393 197.087 967.033 186.487 968.626 175.104C969.442 169.253 969.061 163.469 966.088 158.149C963.114 152.829 958.119 150.084 952.723 150.799C949.083 151.283 946.299 153.224 944.238 156.221C941.332 160.445 940.475 165.261 940.25 170.247C940.039 175.084 940.1 179.941 939.658 184.75C938.93 192.7 936.385 200.016 930.955 206.065C929.839 207.312 928.498 208.375 927.178 209.417C926.511 209.941 925.661 210.241 924.579 210.807L924.585 210.8Z" fill="#237442"/>
<path d="M898.639 244.56C897.672 239.09 896.727 233.736 895.781 228.409C887.554 228.743 882.178 221.29 881.783 214.226C881.552 210.064 881.579 205.881 881.525 201.712C881.45 195.616 879.871 190.071 875.196 185.888C873.509 184.382 871.495 183.095 869.419 182.203C864.942 180.282 860.825 181.705 858.035 185.724C855.898 188.81 855.381 192.339 855.129 195.963C854.68 202.509 855.326 208.967 856.177 215.459C857.055 222.196 859.933 227.803 864.492 232.619C869.297 237.701 875.38 240.616 882.049 242.401C887.424 243.838 892.916 244.417 898.632 244.567L898.639 244.56Z" fill="#237442"/>
<rect x="906" y="309" width="31" height="3" fill="#237442"/>
</g>
<defs>
<clipPath id="clip0_157_195">
<rect width="172" height="298" fill="white" transform="translate(1044 15)"/>
</clipPath>
<clipPath id="clip1_157_195">
<rect width="46" height="80" fill="white" transform="translate(774 233)"/>
</clipPath>
<clipPath id="clip2_157_195">
<rect width="95" height="165" fill="white" transform="translate(611 148)"/>
</clipPath>
<clipPath id="clip3_157_195">
<rect width="46" height="80" fill="white" transform="translate(180 232)"/>
</clipPath>
<clipPath id="clip4_157_195">
<rect width="86" height="150" fill="white" transform="translate(319 164)"/>
</clipPath>
<clipPath id="clip5_157_195">
<rect width="180" height="312" fill="white" transform="matrix(-1 0 0 1 180 0)"/>
</clipPath>
<clipPath id="clip6_157_195">
<rect width="75" height="130" fill="white" transform="matrix(-1 0 0 1 519 183)"/>
</clipPath>
<clipPath id="clip7_157_195">
<rect width="114" height="198" fill="white" transform="matrix(-1 0 0 1 969 115)"/>
</clipPath>
</defs>
</svg>
