<svg width="542" height="1220" viewBox="0 0 542 1220" fill="none" xmlns="http://www.w3.org/2000/svg">
<g clip-path="url(#clip0_163_203)">
<mask id="mask0_163_203" style="mask-type:luminance" maskUnits="userSpaceOnUse" x="0" y="0" width="542" height="1220">
<path d="M542 0H0V1220H542V0Z" fill="white"/>
</mask>
<g mask="url(#mask0_163_203)">
<path d="M741.659 812.027C705.657 791.106 710.24 739.487 720.772 697.25C727.734 669.194 740.909 643.429 755.803 618.632C761.973 608.37 765.277 597.492 765.277 586.217C765.277 533.232 692.041 488.881 593.953 477.694C591.617 477.43 589.238 477.165 586.858 476.945C573.418 475.624 559.494 474.963 545.261 474.963C527.502 474.963 510.273 476.02 493.705 478.046C491.325 478.31 488.99 478.619 486.61 478.971C393.545 491.92 325.244 535.038 325.244 586.217C325.244 595.201 331.105 607.886 336.657 617.972C351.286 644.354 362.831 672.365 369.661 701.742C379.268 743.099 381.383 791.855 346.704 812.027C282.633 849.375 251.523 940.017 300.391 1052.77C301.361 1055.01 302.418 1057.3 303.432 1059.59C303.432 1059.64 303.476 1059.68 303.52 1059.73C303.96 1060.7 304.445 1061.62 304.886 1062.59C306.34 1065.41 307.882 1068.27 309.469 1071.05C309.821 1071.62 310.13 1072.19 310.482 1072.76C349.876 1138.78 440.166 1184.94 545.261 1184.94C669.48 1184.94 773.033 1120.46 796.299 1034.89C834.68 930.503 802.424 847.438 741.659 812.071V812.027ZM482.248 658.844C497.803 645.279 518.161 637.087 540.414 637.087C562.666 637.087 582.98 645.279 598.491 658.8C601.047 661.002 603.427 663.336 605.718 665.803H498.992L475.065 665.847C477.312 663.38 479.736 661.046 482.248 658.844Z" fill="#F9A21C"/>
<path d="M605.718 665.847H498.992L475.065 665.891C460.656 681.659 451.843 702.623 451.843 725.658C451.843 774.546 491.501 814.185 540.414 814.185C589.326 814.185 628.984 774.546 628.984 725.658C628.984 702.623 620.171 681.614 605.718 665.847Z" fill="#84192A"/>
<path d="M613.209 725.658C613.209 765.825 580.645 798.373 540.414 798.373C500.182 798.373 467.618 765.825 467.618 725.658C467.618 700.861 480 679.016 498.948 665.891H581.791C600.739 678.972 613.165 700.861 613.165 725.658H613.209Z" fill="#F9A21E"/>
<path d="M540.413 785.424C573.438 785.424 600.21 758.666 600.21 725.658C600.21 692.649 573.438 665.891 540.413 665.891C507.389 665.891 480.617 692.649 480.617 725.658C480.617 758.666 507.389 785.424 540.413 785.424Z" fill="black"/>
<path d="M665.558 992.604H415.269V1031.67H665.558V992.604Z" fill="black"/>
<path d="M581.834 665.847H498.992C510.758 657.699 525.035 652.942 540.457 652.942C555.88 652.942 570.113 657.743 581.879 665.847H581.834Z" fill="#F9A21C"/>
<path d="M605.718 665.847H581.835C570.07 657.699 555.793 652.942 540.414 652.942C525.035 652.942 510.714 657.743 498.949 665.891H475.021C477.269 663.425 479.692 661.09 482.204 658.888L481.763 665.847H483.085C497.274 648.758 517.676 638.056 540.326 638.056C562.975 638.056 583.377 648.758 597.566 665.803H598.888L598.448 658.844C601.003 661.046 603.383 663.38 605.674 665.847H605.718Z" fill="#83192B"/>
<path d="M598.975 665.759H597.654C583.465 648.714 563.062 638.012 540.413 638.012C517.764 638.012 497.317 648.758 483.173 665.803H481.851L482.291 658.844C497.846 645.279 518.204 637.087 540.457 637.087C562.71 637.087 583.024 645.279 598.535 658.8L598.975 665.759Z" fill="#83192B"/>
<path d="M507.762 246.51H572.097" stroke="#A29F9B" stroke-width="0.55" stroke-miterlimit="10"/>
<path d="M506.087 276.812H574.696" stroke="#A29F9B" stroke-width="0.55" stroke-miterlimit="10"/>
<path d="M504.853 307.114H575.974" stroke="#A29F9B" stroke-width="0.55" stroke-miterlimit="10"/>
<path d="M503.002 337.416H577.912" stroke="#A29F9B" stroke-width="0.55" stroke-miterlimit="10"/>
<path d="M501.063 367.674H579.852" stroke="#A29F9B" stroke-width="0.55" stroke-miterlimit="10"/>
<path d="M499.213 397.975H581.791" stroke="#A29F9B" stroke-width="0.55" stroke-miterlimit="10"/>
<path d="M497.273 428.277H583.729" stroke="#A29F9B" stroke-width="0.55" stroke-miterlimit="10"/>
<path d="M495.423 458.579H585.668" stroke="#A29F9B" stroke-width="0.55" stroke-miterlimit="10"/>
<path d="M493.396 488.881H587.652" stroke="#A29F9B" stroke-width="0.55" stroke-miterlimit="10"/>
<path d="M491.104 519.139H589.59" stroke="#A29F9B" stroke-width="0.55" stroke-miterlimit="10"/>
<path d="M489.166 549.44H591.529" stroke="#A29F9B" stroke-width="0.55" stroke-miterlimit="10"/>
<path d="M487.227 582.781H593.644" stroke="#A29F9B" stroke-width="0.55" stroke-miterlimit="10"/>
<path d="M487.315 616.474H593.733" stroke="#A29F9B" stroke-width="0.55" stroke-miterlimit="10"/>
<path d="M513.138 1013.97H571.215" stroke="#A29F9B" stroke-width="1.64" stroke-miterlimit="10"/>
<path d="M515.076 78.4852L515.297 87.6902H483.35V78.4852H515.076Z" fill="#A97E2C"/>
<path d="M550.46 78.4852L550.637 87.6902H533.804L533.936 78.4852H550.46Z" fill="#A97E2C"/>
<path d="M478.105 89.496C481.999 89.496 485.155 86.341 485.155 82.4491C485.155 78.5572 481.999 75.4022 478.105 75.4022C474.211 75.4022 471.055 78.5572 471.055 82.4491C471.055 86.341 474.211 89.496 478.105 89.496Z" fill="#A97E2C"/>
<path d="M516.002 119.534L516.222 128.739H483.35V119.534H516.002Z" fill="#A97E2C"/>
<path d="M551.386 119.534L551.562 128.739H533.275L533.364 119.534H551.386Z" fill="#A97E2C"/>
<path d="M478.105 130.544C481.999 130.544 485.155 127.389 485.155 123.497C485.155 119.606 481.999 116.451 478.105 116.451C474.211 116.451 471.055 119.606 471.055 123.497C471.055 127.389 474.211 130.544 478.105 130.544Z" fill="#A97E2C"/>
<path d="M515.561 99.0093L515.737 108.17H483.35V99.0093H515.561Z" fill="#A97E2C"/>
<path d="M551.121 108.17H533.539L533.627 99.0093H550.901L551.121 108.17Z" fill="#A97E2C"/>
<path d="M478.105 110.02C481.999 110.02 485.155 106.865 485.155 102.973C485.155 99.0813 481.999 95.9263 478.105 95.9263C474.211 95.9263 471.055 99.0813 471.055 102.973C471.055 106.865 474.211 110.02 478.105 110.02Z" fill="#A97E2C"/>
<path d="M598.536 658.844C582.981 645.279 562.667 637.131 540.458 637.131C518.249 637.131 497.847 645.323 482.292 658.888L493.308 485.269L493.749 478.134L512.168 187.669H568.395L586.902 476.989L587.343 484.036L598.536 658.844Z" fill="black"/>
<path d="M571.744 28.4079L560.815 28.7602L519.791 29.9935L509.039 30.3458C501.151 30.3458 494.674 39.3306 494.674 50.3855L496.392 78.5732L496.965 87.7783L497.67 99.0974L498.243 108.302L498.948 119.622L499.521 128.827L502.561 178.508C502.561 189.518 509.039 198.547 516.971 198.547H564.164C572.052 198.547 581.35 189.518 581.35 178.508L583.156 128.827L583.509 119.622L583.905 108.302L584.258 99.0974L584.655 87.7783L585.007 78.5732L586.109 48.4917C586.109 37.4808 579.631 28.4519 571.744 28.4519V28.4079ZM515.076 78.4851H533.936L533.804 87.6902H515.296L515.076 78.4851ZM515.561 99.0093H533.671L533.539 108.214H515.781L515.605 99.0093H515.561ZM516.222 128.739L516.045 119.534H533.407L533.275 128.739H516.222ZM568.659 128.739H551.606L551.43 119.534H568.791L568.659 128.739ZM568.967 108.214H551.165L550.989 99.0093H569.1L568.967 108.214ZM569.232 87.6902H550.725L550.504 78.4851H569.408L569.276 87.6902H569.232Z" fill="#83192B"/>
<path d="M540.37 51.9711C551.759 51.9711 560.992 42.8018 560.992 31.4909C560.992 20.1801 551.759 11.0108 540.37 11.0108C528.98 11.0108 519.747 20.1801 519.747 31.4909C519.747 42.8018 528.98 51.9711 540.37 51.9711Z" fill="#83192B"/>
<path d="M533.936 78.4852L533.804 87.6902H515.297L515.076 78.4852H533.936Z" fill="#A97E2C"/>
<path d="M533.627 99.0093L533.539 108.17H515.737L515.561 99.0093H533.627Z" fill="#A97E2C"/>
<path d="M533.364 119.534L533.275 128.739H516.222L516.002 119.534H533.364Z" fill="#A97E2C"/>
<path d="M516.222 128.739H533.275L533.055 146.488C533.055 152.742 531.116 157.851 529.485 157.851H519.659C517.984 157.851 516.662 152.742 516.662 146.488L516.266 128.739H516.222Z" fill="#915348"/>
<path d="M533.54 108.17L533.363 119.534H516.002L515.737 108.17H533.54Z" fill="#915348"/>
<path d="M533.804 87.6902L533.628 99.0094H515.561L515.297 87.6902H533.804Z" fill="#915348"/>
<path d="M534.024 72.5834L533.936 78.4852H515.076L514.988 73.6844C514.988 67.4303 516.354 62.3213 517.985 62.3213L520.232 62.1451L528.737 61.4404L531.028 61.2642C532.658 61.2642 534.024 66.4173 534.024 72.6274V72.5834Z" fill="#915348"/>
<path d="M524.506 74.6094C526.866 74.6094 528.78 69.4036 528.78 62.9819C528.78 56.5603 526.866 51.3545 524.506 51.3545C522.145 51.3545 520.231 56.5603 520.231 62.9819C520.231 69.4036 522.145 74.6094 524.506 74.6094Z" fill="#915348"/>
<path d="M520.188 1013.97V118.3" stroke="#A29F9B" stroke-width="0.55" stroke-miterlimit="10"/>
<path d="M528.78 1012.12V100.859" stroke="#A29F9B" stroke-width="0.55" stroke-miterlimit="10"/>
<path d="M538.034 1012.12V146.444" stroke="#A29F9B" stroke-width="0.55" stroke-miterlimit="10"/>
</g>
</g>
<defs>
<clipPath id="clip0_163_203">
<rect width="542" height="1220" fill="white"/>
</clipPath>
</defs>
</svg>
