<svg width="153" height="135" viewBox="0 0 153 135" fill="none" xmlns="http://www.w3.org/2000/svg">
<g clip-path="url(#clip0_50_14630)">
<path d="M49.3715 91.1371C50.2998 90.5939 51.2508 90.0042 52.3532 89.9573C52.8724 89.936 53.3738 89.7423 53.9066 89.8293C54.4394 89.9164 54.9634 90.3575 55.5415 90.3516C56.3312 90.3382 57.0279 90.2794 57.7998 90.0936C58.5201 89.9048 59.3104 89.6085 60.0464 89.56C60.514 89.5356 60.9897 89.44 61.4437 89.3073C62.2703 89.0729 62.9746 88.5444 63.7701 88.2285C64.4717 87.9509 65.1443 87.6238 65.8407 87.3658C66.2802 87.2083 66.6793 86.9249 67.1261 86.7798C67.447 86.6751 67.7649 86.622 68.0786 86.505C68.5924 86.304 69.0875 86.0143 69.6013 85.8133C71.0539 85.2292 72.5126 84.5417 74.0419 84.1454C74.9077 83.9212 75.753 83.7756 76.5877 83.4699C77.3656 83.1809 78.1798 82.9537 78.9765 82.7534C79.4501 82.6258 79.9908 82.4423 80.4116 82.1961C81.3275 81.6601 82.4346 81.1951 83.2171 80.488C83.5748 80.1623 83.9926 79.9677 84.3359 79.6172C84.5225 79.425 84.834 79.2759 84.9937 79.0661C85.071 78.9711 85.0575 78.8627 85.1275 78.7552C85.1749 78.6942 85.276 78.6683 85.3038 78.6022C85.4388 78.4069 85.5076 78.1838 85.655 77.9813C85.8023 77.7788 86.02 77.668 86.189 77.5026C86.4798 77.2328 86.881 76.9814 87.1014 76.6198C86.9739 77.0267 86.6379 77.3895 86.3885 77.7016C86.1216 78.0405 85.8548 78.3795 85.5806 78.7061C84.9653 79.4151 84.3138 80.0622 83.7864 80.8361C83.5165 81.2267 83.2858 81.6276 83.0086 82.0058C82.8489 82.2156 82.7191 82.3912 82.5935 82.6309C82.4123 83.0028 82.1433 83.3098 81.9425 83.6765C81.6789 84.1631 81.4422 84.6672 81.1859 85.1661C80.9923 85.5453 80.7502 85.8697 80.6228 86.2767C80.5056 86.6443 80.3296 86.9966 80.264 87.3673C80.1954 87.7896 80.0885 88.118 79.9415 88.5198C79.5465 89.5486 79.0855 90.5495 78.6244 91.5505C78.0625 92.7766 77.5295 94.0522 76.7744 95.1754C76.5293 95.5515 76.343 95.943 76.2031 96.3572C76.0941 96.6536 75.9398 97.043 75.7575 97.2993C75.6977 97.3675 75.6234 97.4109 75.5709 97.4915C75.4308 97.7064 75.4024 98.0554 75.3408 98.2909C75.2453 98.6957 75.0424 99.0304 74.8685 99.4147C74.5938 100.024 74.1062 100.525 73.6434 101.012C73.4568 101.205 73.2814 101.274 73.0803 101.441C72.9463 101.553 72.8928 101.717 72.8125 101.864C72.1926 102.991 71.5583 104.094 70.8847 105.186C70.5417 105.735 70.2845 106.318 69.9146 106.85C69.7972 107.018 69.7685 107.168 69.6706 107.342C69.5728 107.515 69.4119 107.609 69.2945 107.778C69.0647 108.095 68.9415 108.566 68.7582 108.906C68.4164 109.571 67.9641 110.218 67.5955 110.866C67.2268 111.514 66.7106 112.165 66.2489 112.767C65.8697 113.255 65.3064 113.485 64.7938 113.801C64.5091 113.968 64.2854 114.182 63.963 113.972C63.6138 113.744 63.5921 113.026 63.5421 112.656C63.3182 111.308 63.306 109.953 63.0182 108.609C62.8541 107.874 62.709 106.746 62.2167 106.104C61.7244 105.461 61.2599 104.752 60.7481 104.105C60.4037 103.658 60.0345 103.226 59.7273 102.758C59.0425 101.73 58.5804 100.571 58.1824 99.4079C57.7844 98.245 57.4781 97.0118 57.1863 95.8033C57.0077 95.0437 56.9055 94.2727 56.7269 93.5131C56.6354 93.1013 56.618 92.4469 56.0505 92.6128C55.6532 92.7289 55.5846 93.1513 55.2453 93.3664C54.9235 93.5547 54.5446 93.5604 54.1803 93.5908C53.8479 93.6191 53.4576 93.5484 53.1171 93.648C52.8333 93.731 52.3633 94.2054 52.2097 93.6306C52.9671 93.42 53.7912 93.6357 54.5685 93.6295C55.1022 93.633 55.6431 93.6488 56.1717 93.6718C56.7446 93.6855 57.3113 93.6032 57.877 93.6045C58.4427 93.6058 58.993 93.666 59.5535 93.6869C60.2865 93.6901 61.1163 93.6033 61.8257 93.7366C62.1375 93.7867 62.3564 93.7916 62.6148 94.006C62.8876 94.2451 63.1596 94.5679 63.3159 94.8918C63.4722 95.2158 63.5543 95.5832 63.6663 95.9165C63.8591 96.5016 64.0084 97.0124 64.2777 97.586C64.8118 98.6693 65.4483 99.8422 65.6441 101.057C65.7244 101.592 65.7427 102.163 66.0004 102.66C66.1308 102.883 66.2787 103.079 66.372 103.323C66.4652 103.568 66.4975 103.765 66.6475 103.993C67.2258 104.867 67.4274 102.855 67.4549 102.59C67.5727 101.258 67.5234 99.9241 67.6485 98.6046C67.8477 96.361 68.1532 94.0719 68.7354 91.8867C68.8453 91.5067 69.6117 89.5793 68.7043 89.5619C68.4534 89.5592 68.1935 89.7113 68.0317 89.889C67.8101 90.135 67.6899 90.5543 67.5685 90.858C67.3176 91.5366 67.1255 92.2306 66.9799 92.9472C66.8262 93.7351 66.3533 95.1418 67.0098 95.8377C67.4109 96.2677 67.8842 96.6222 68.4254 96.8372C68.9005 97.0245 69.4949 96.8761 69.9924 96.8176C70.4899 96.7591 70.9678 96.6955 71.3968 96.378C71.7464 96.1236 72.0039 95.7402 72.2367 95.3714C72.3994 95.11 72.493 94.8724 72.6093 94.5884C72.8016 94.0936 73.0571 93.6783 73.3889 93.2515C73.9679 92.4806 74.5295 91.7366 75.2037 91.043C75.4923 90.7411 75.7024 90.4188 75.8443 90.0366C76.0346 89.5099 76.0174 89.0546 75.7669 88.5698C75.5837 88.2283 75.2337 87.4029 74.926 88.0981C74.7696 88.4555 74.7134 88.8705 74.5714 89.2527C74.4069 89.6813 74.1732 90.1338 73.9425 90.5347" fill="#C08253"/>
<path d="M51.1823 94.2318C51.8012 93.8696 52.2024 93.6182 52.8804 93.4708L53.8042 93.3456C52.8397 93.1456 52.7066 93.1737 53.3975 93.4174C53.7911 93.6358 54.2156 93.7364 54.6451 93.8173C56.6649 94.2307 58.5725 93.4302 60.5168 93.09C62.6635 92.698 64.3604 91.8213 66.3495 90.9897C67.9383 90.3259 69.4127 89.7788 71.0169 89.0561C74.7814 87.3684 79.0484 86.9653 82.6659 84.998C84.304 84.1059 85.9016 83.088 87.2191 81.8185C87.5521 81.5073 87.819 81.1684 88.0961 80.7902C87.5089 81.6323 88.3793 80.3087 88.4865 80.1795C88.7133 79.9139 88.2679 80.3739 88.7371 79.983C89.0722 79.7039 89.3826 79.4392 89.6494 79.1002L83.9503 74.8411C83.2906 76.2408 81.6151 77.6367 80.623 79.0647C79.6308 80.4927 78.8039 81.8906 78.0297 83.4071C77.1248 85.1829 76.6908 87.082 75.8912 88.8958C75.0917 90.7097 74.1741 92.2935 73.3094 93.9959C73.0705 94.468 72.937 94.9782 72.7178 95.4554C73.1037 94.5815 72.6505 95.312 72.4147 95.7325C71.9956 96.4928 71.9638 97.3755 71.4714 98.0957C71.4415 98.1298 70.8549 98.6891 71.1529 98.4317C71.5004 98.1452 71.2797 98.3076 70.4857 98.9384L69.9241 99.6824C69.3565 100.53 68.9036 101.459 68.3949 102.322C67.4526 103.92 66.4173 105.473 65.6072 107.127C64.8599 108.661 64.0401 110.071 62.56 110.921L64.3658 110.429L63.9384 110.38L66.441 111.392L66.2322 111.148L67.1956 112.795C67.0773 112.365 67.0483 112.316 67.1086 112.646C67.0534 112.296 67.0179 111.952 66.9823 111.607C66.903 110.989 66.8556 110.368 66.7959 109.755C66.6518 108.543 66.4859 107.294 66.1322 106.122C65.3151 103.476 62.9311 101.731 61.9087 99.1883C60.9795 96.8905 60.8047 94.4337 60.0974 92.0892C59.5726 90.369 58.2433 89.1195 56.4068 89.0476C54.757 88.9827 53.8157 89.816 52.6899 90.8736L54.3361 89.9103C53.8326 90.072 53.2183 90.0161 52.6662 90.1232C52.0057 90.2438 51.4248 90.5006 50.8141 90.7915L52.62 90.2997L52.3887 90.3021L55.4881 92.0778L55.336 91.8178C54.5911 93.5831 53.8782 95.3462 53.1456 97.1043C54.1808 96.914 55.6451 97.2868 56.7548 97.2522C57.5125 97.2409 58.2505 97.2244 58.998 97.2524C59.3717 97.2663 59.7381 97.2679 60.117 97.2622C60.7983 97.2624 61.8147 97.6647 60.6511 96.7835C59.4265 95.855 60.3183 97.294 60.567 97.9461C60.9017 98.8303 61.3601 99.6422 61.7319 100.505C62.0075 101.174 62.1013 101.817 62.2437 102.515C62.3278 102.914 62.3984 103.205 62.5321 103.576C62.3487 103.035 63.2217 105.067 63.0488 104.686C63.6536 106.06 64.7492 107.762 66.884 107.776C68.8908 107.798 70.2503 106.288 70.7546 104.481C71.5178 101.724 71.084 98.6547 71.5529 95.8214C72.0217 92.988 73.6866 89.8702 71.7208 87.4478C70.4757 85.9164 68.2021 85.5519 66.5013 86.5638C64.8004 87.5757 64.1403 89.4575 63.6803 91.2555C62.7583 94.8193 62.9282 98.1762 66.6645 99.9614C69.9236 101.527 73.9638 99.8278 75.5471 96.741C77.1305 93.6543 80.47 91.4675 79.1959 87.6433C78.5293 85.6239 76.8569 84.0435 74.6058 84.3139C72.0172 84.6322 71.8005 86.9026 70.7595 88.7581C68.5116 92.7821 74.7547 96.324 77.0078 92.2804C77.5947 91.239 77.9658 90.1412 78.3348 89.0113L77.4369 90.6002L77.6265 90.3563L75.0566 91.4447L75.2507 91.4641L72.748 90.4526C72.256 90.0094 72.1715 89.4107 72.5019 88.6691C72.7038 88.4179 72.6018 88.5275 72.1885 88.9854C71.7667 89.3153 71.4331 89.9093 71.1064 90.3165C70.7272 90.8043 68.9049 92.8012 69.166 93.446C69.0238 93.6289 69.0084 93.6878 69.1125 93.6102C69.6891 93.2894 69.6704 93.2007 69.0389 93.3708C69.326 93.4355 71.394 93.7042 70.2495 94.6731C70.4382 94.5128 70.47 93.6301 70.5419 93.3554C70.6835 92.774 70.8376 92.1854 71.1383 91.6771L69.825 93.0105L69.6155 93.05L67.7904 93.0545L68.0331 93.1285L65.8474 91.4663C65.7873 89.7733 65.6762 89.3564 65.5019 90.2228C65.4506 90.419 65.3796 90.61 65.3159 90.8135C65.1855 91.272 65.0674 91.7233 64.9762 92.1921C64.6705 93.6007 64.4753 95.0276 64.2998 96.4597C64.1242 97.8918 64.0187 99.2164 63.9691 100.608C63.9421 101.272 63.9544 101.946 63.8759 102.607C63.8484 102.872 63.8565 102.801 63.9055 102.373C63.7309 103.041 63.8958 102.811 64.4145 101.71L66.9844 100.622L66.8296 100.613L69.3323 101.624C70.5966 102.961 69.5432 101.899 69.3027 101.176C69.2695 101.063 69.1591 100.363 69.1247 100.134C68.9084 98.9973 68.4207 97.9367 67.9403 96.8885C66.9214 94.693 66.5296 92.0641 64.202 90.784C62.361 89.7675 59.6578 90.0034 57.6036 90.0423C55.5493 90.0811 53.346 89.8084 51.2881 90.1818C49.0527 90.5925 47.9029 93.625 49.1225 95.4537C50.6081 97.7084 52.6583 97.8048 54.9352 96.755L53.1293 97.2467C54.0624 97.166 55.0112 97.2257 55.9244 96.9405C56.4847 96.7622 56.9767 96.5241 57.4429 96.1849C57.381 96.2211 58.4977 95.3184 57.8758 95.7322L56.07 96.2239L56.4044 96.2276L53.9017 95.2161L54.0837 95.442L53.1204 93.7956C54.1837 97.5437 54.5165 101.52 56.817 104.826C57.7955 106.215 59.1206 107.4 59.4687 109.074C59.8169 110.748 59.7545 112.629 60.1935 114.316C60.8257 116.788 63.3455 118.255 65.7784 117.33C67.8532 116.531 69.2332 114.942 70.4385 113.14C72.5492 109.961 74.1764 106.467 76.2385 103.233L74.9253 104.566C77.223 102.956 78.14 100.973 79.0655 98.4377L78.1676 100.027C78.9284 99.2823 79.3076 98.1132 79.7071 97.3477C80.1416 96.5285 80.6443 95.769 81.0519 94.9323C82.1368 92.669 83.0544 90.4038 83.8429 88.0315C84.4175 86.316 85.525 84.6876 86.5449 83.1935C87.6698 81.5381 89.3816 80.2041 90.2575 78.3788C91.0253 76.7663 90.7584 74.862 89.26 73.778C87.9105 72.8063 85.7198 72.7256 84.5584 74.1197C84.1297 74.6365 83.5624 75.0016 83.112 75.4812C82.8182 75.8027 82.6123 76.1891 82.3774 76.5259C83.0347 75.5763 81.8044 77.1936 82.0879 76.9114C81.491 77.5099 79.7572 78.6075 78.6327 79.0994C76.9398 79.8408 74.9582 80.2027 73.1575 80.6748C71.0483 81.2443 69.1111 82.2782 67.0734 83.0552C65.6754 83.5908 64.2867 84.1707 62.8929 84.7703C62.0552 85.1276 61.2032 85.6593 60.3396 85.9154C59.4759 86.1716 58.615 86.1769 57.7688 86.4061C57.2828 86.541 56.5585 86.8651 56.094 86.8378C55.3517 86.7903 54.4259 86.202 53.4391 86.2477C51.3302 86.3352 49.4266 87.0005 47.6071 88.0652C43.6215 90.3974 47.2433 96.5866 51.2288 94.2544L51.1823 94.2318Z" fill="#C08253"/>
<path d="M64.0226 115.948C64.0226 115.948 74.2747 113.903 88.4177 75.2347C88.4177 75.2347 99.0902 44.6621 109.988 35.7427C120.886 26.8232 130.581 32.034 130.581 32.034C130.581 32.034 136.449 35.5299 127.988 50.8003C127.988 50.8003 94.8874 107.076 66.0919 119.257C66.0919 119.257 30.3285 135.232 24.7964 104.255C24.7964 104.255 22.7906 82.1147 42.1306 72.4593C42.1925 72.4231 42.2668 72.3796 42.3359 72.3558L46.1273 81.0214C46.1273 81.0214 70.4306 85.3281 97.2418 53.0885C97.2418 53.0885 100.89 46.999 101.572 45.7521C101.572 45.7521 88.7525 30.4884 80.2904 26.5333C71.8282 22.5783 66.2681 25.3999 62.6166 31.1425C62.6166 31.1425 59.7164 34.5345 53.5784 35.9993C53.5784 35.9993 35.0581 41.3198 36.8667 53.8377C36.8667 53.8377 38.0144 64.0336 40.8155 68.7921C41.4384 69.8566 41.8262 71.0588 42.054 72.2715L42.0685 72.2963" fill="#C08253"/>
<path d="M48.0972 86.4324C48.0972 86.4324 66.3581 92.6796 89.0613 72.6148L97.0702 53.704C97.0702 53.704 75.7431 80.4081 45.5765 79.8814L48.09 86.42L48.0972 86.4324Z" fill="#502B11"/>
<path d="M49.6484 69.2067L40.9841 74.2767L44.6059 80.466L53.2701 75.396L49.6484 69.2067Z" fill="#C08253"/>
<path d="M46.7422 77.8699C50.7278 75.5377 47.1061 69.3484 43.1205 71.6806C39.135 74.0128 42.7567 80.2021 46.7422 77.8699Z" fill="#C08253"/>
<path d="M47.6084 79.4069C51.594 77.0747 47.9723 70.8855 43.9867 73.2177C40.0012 75.5499 43.6229 81.7391 47.6084 79.4069Z" fill="#C08253"/>
<path d="M50.8518 93.4115C54.8374 91.0793 51.2157 84.8901 47.2301 87.2223C43.2446 89.5545 46.8663 95.7437 50.8518 93.4115Z" fill="#C08253"/>
<path d="M93.2156 78.6918C93.4568 78.451 93.6567 78.1678 93.8297 77.8672L93.2681 78.6112C93.5072 78.3384 93.7515 78.0459 93.942 77.7184L93.3804 78.4624L93.4052 78.4479C93.1474 78.632 92.8968 78.8285 92.6462 79.025L92.671 79.0105C92.377 79.1327 92.0829 79.2549 91.7889 79.3771L91.826 79.3554C90.4775 77.6187 89.1289 75.8821 87.7804 74.1454L87.7556 74.1599C87.9525 73.9284 88.1348 73.6721 88.3244 73.4282C88.312 73.4355 88.2945 73.4623 88.277 73.4892L89.0287 72.8998C89.0287 72.8998 88.9916 72.9215 88.9668 72.936L89.849 72.5693C89.849 72.5693 89.7994 72.5983 89.7478 72.5953L90.6716 72.4702C90.6716 72.4702 90.6199 72.4671 90.6003 72.462L91.5141 72.5754C91.5141 72.5754 91.4821 72.5775 91.4748 72.5651L92.327 72.914C92.7601 73.3418 93.2128 73.7748 93.6532 74.215C93.5467 74.0613 93.4495 73.952 93.3161 73.7808C93.1495 73.4961 92.9231 73.2796 92.6493 73.1241C92.5274 73.0293 92.4054 72.9345 92.2711 72.8469C92.1492 72.7521 91.9973 72.6914 91.8352 72.6699C91.4169 72.4661 90.9728 72.3603 90.5052 72.3847C90.4092 72.391 89.663 72.4787 89.5619 72.5047C89.4608 72.5306 88.7417 72.8351 88.655 72.8858L87.9033 73.4752L87.8785 73.4897C87.8662 73.497 87.8414 73.5114 87.8363 73.5311L88.588 72.9416L88.5756 72.9489C88.1476 73.1828 87.7898 73.5084 87.5467 73.9165C87.2355 74.2648 87.0244 74.6708 86.9332 75.1396C86.8027 75.5982 86.7683 76.0504 86.869 76.5065C86.8883 76.9938 87.0335 77.4406 87.2921 77.8542L87.8816 78.606C88.3343 79.039 88.8623 79.3449 89.4705 79.5041L90.3843 79.6175C91.0336 79.6197 91.6331 79.4517 92.1901 79.1257L92.2272 79.104C92.4778 78.9075 92.7284 78.7111 92.979 78.5146C93.1058 78.3905 93.1459 78.3172 93.2984 78.095C93.4457 77.8925 93.5354 77.7902 93.6332 77.6166L93.0716 78.3606C93.0716 78.3606 93.0964 78.3462 93.1015 78.3265L92.3498 78.916C92.3498 78.916 92.4488 78.858 92.4983 78.8291C92.8026 78.6676 93.2347 78.2985 93.3862 78.1599C93.6471 77.9242 93.8521 77.6215 94.0251 77.3208C94.0601 77.2671 94.1003 77.1938 94.1353 77.14L93.5737 77.8841C93.5737 77.8841 93.6036 77.85 93.6284 77.8355L92.8766 78.4249C92.8766 78.4249 92.9633 78.3742 93.0004 78.3525C93.0252 78.338 93.0499 78.3235 93.087 78.3018C93.2283 78.2025 93.35 78.0981 93.484 77.9864C93.6326 77.8995 93.7542 77.795 93.881 77.671C94.1624 77.3568 94.3396 77.1201 94.6343 76.7151C94.6642 76.681 94.6868 76.6345 94.7044 76.6076C94.7167 76.6004 94.7342 76.5735 94.7394 76.5539L94.7641 76.5394C94.8731 76.243 94.9894 75.9589 95.1056 75.6749C95.1283 75.6284 95.1313 75.5768 95.1467 75.5179C95.202 75.1864 95.2428 74.8302 95.2785 74.4936L95.1651 75.4074C95.1651 75.4074 95.1836 75.2969 95.199 75.2381L94.8502 76.0902C94.8502 76.0902 94.9079 75.99 94.9305 75.9435C94.9429 75.9363 94.9604 75.9094 94.9656 75.8898C95.0262 75.738 95.0869 75.5861 95.1476 75.4343C95.228 75.2876 95.2886 75.1357 95.3297 74.9788C95.4602 74.5202 95.4946 74.068 95.3939 73.6119C95.3746 73.1246 95.2295 72.6778 94.9708 72.2642C94.7369 71.8361 94.4112 71.4783 94.0031 71.2352C93.6548 70.9239 93.2488 70.7128 92.78 70.6215L91.8663 70.5082C91.217 70.5059 90.6174 70.674 90.0604 70.9999L89.3087 71.5893C88.8758 72.0421 88.5699 72.57 88.4108 73.1783L88.4005 73.2175L88.7493 72.3654C88.7493 72.3654 88.704 72.4583 88.6741 72.4924C88.499 72.7611 88.3211 73.2806 88.2677 73.4448C88.1381 73.8197 88.1459 74.2306 88.1072 74.6188L88.2205 73.705C88.2205 73.705 88.2021 73.8155 88.1795 73.862L88.5282 73.0098C88.5282 73.0098 88.453 73.1369 88.4129 73.2103L88.9745 72.4662C88.9095 72.5541 88.8301 72.6172 88.7704 72.6854L89.5221 72.0959C89.5221 72.0959 89.4231 72.1539 89.3736 72.1828C89.3488 72.1973 89.3364 72.2046 89.3117 72.2191C89.1704 72.3184 89.0487 72.4228 88.927 72.5272C88.7785 72.6141 88.6445 72.7258 88.5177 72.8498L88.4929 72.8643C88.3106 73.1206 88.1282 73.3769 87.9386 73.6207C87.9138 73.6352 87.9087 73.6548 87.8912 73.6817C87.8562 73.7354 87.8335 73.7819 87.7985 73.8357L88.3601 73.0916C88.3601 73.0916 88.3178 73.133 88.3003 73.1598L89.052 72.5704C88.9654 72.6211 88.8911 72.6646 88.8045 72.7153L88.7797 72.7297C88.5291 72.9262 88.2786 73.1227 88.028 73.3192C88.0156 73.3264 88.0032 73.3337 87.9981 73.3533L87.4365 74.0973C87.4365 74.0973 87.4118 74.1118 87.4067 74.1314C87.3819 74.1459 87.384 74.1779 87.3665 74.2048L87.9281 73.4607C87.9281 73.4607 87.8909 73.4825 87.8858 73.5021L88.6375 72.9127L88.6004 72.9344L92.2221 79.1236C92.5098 78.9054 92.7903 78.6748 93.0584 78.4515L92.3066 79.0409L92.319 79.0337C91.7195 79.2017 91.1127 79.3574 90.5132 79.5254L90.5255 79.5182C89.9442 79.3765 89.3555 79.2224 88.7669 79.0684C88.3338 78.6405 87.881 78.2075 87.4406 77.7673C87.4479 77.7797 87.4624 77.8044 87.4696 77.8168C87.6734 78.0798 87.8698 78.3304 88.0663 78.581L88.8104 79.1426C89.3673 79.498 90.0302 79.6086 90.6744 79.6305C91.2546 79.6566 92.1327 79.4252 92.6133 79.1107C93.2228 78.7042 93.6796 78.3206 94.0287 77.6677L94.3774 76.8156L94.4907 75.9018L94.3655 74.978C94.2503 74.4971 94.036 74.0741 93.6907 73.7112C93.5241 73.4265 93.2977 73.21 93.024 73.0545C92.7976 72.838 92.5238 72.6824 92.2295 72.6054C91.9557 72.4499 91.6614 72.3729 91.3465 72.3743C90.8901 72.2758 90.4349 72.2929 89.9685 72.4329C89.2277 72.7002 88.8201 72.8556 88.2604 73.4324C88.0192 73.6733 87.8266 73.9688 87.6463 74.2571L88.2079 73.513C88.2079 73.513 88.1532 73.5616 88.1357 73.5885C87.8873 73.817 87.7143 74.1176 87.534 74.4059L88.0956 73.6618L88.0708 73.6763C87.7203 74.0144 87.4824 74.4028 87.3447 74.849C87.1409 75.2674 87.0352 75.7114 87.0596 76.179C87.0468 76.6684 87.1476 77.1245 87.3619 77.5475C87.5143 78.0067 87.7657 78.4079 88.1357 78.7564L88.8798 79.318C89.4273 79.6291 90.0087 79.7708 90.6457 79.7802L91.5694 79.6551C92.2009 79.485 92.7579 79.1591 93.2156 78.6918Z" fill="#C08253"/>
<path d="M94.6679 75.6651C94.6679 75.6651 94.5896 76.5252 94.6809 76.0564C94.5558 76.6945 94.5863 76.3776 94.7563 76.1285C94.9263 75.8795 95.0643 75.6326 95.195 75.3733L95.5438 74.5212L95.3587 75.0283C95.3587 75.0283 95.5265 74.7473 95.5441 74.7204C95.8221 74.2586 96 73.7391 96.1655 73.2268L95.2675 74.8158C95.4644 74.5842 96.3255 73.2163 95.5024 74.4789C95.8053 74.0026 96.1114 73.6739 96.3336 73.145C96.7863 72.0161 96.5223 72.9848 96.3768 73.0201C96.4656 73.0014 96.6652 72.519 96.6929 72.4529C96.8442 72.1151 97.3497 71.1048 96.8771 72.0294C97.0079 71.7701 97.3651 70.3646 97.0459 71.6647C97.0254 71.7432 97.6885 69.8098 97.7205 69.8077C97.4901 70.4078 97.4901 70.4078 97.735 69.8325C97.8358 69.6073 97.9171 69.3769 98.0107 69.1394C97.9304 69.2861 97.5865 69.9194 97.8893 69.4431C98.0943 69.1403 98.2797 68.8324 98.4578 68.5122C98.6411 68.1723 98.7187 67.5951 98.9301 67.3883C99.1414 67.1816 98.5985 68.0144 98.8745 67.5206C98.995 67.3005 99.0958 67.0753 99.1967 66.8501L99.5454 65.998C99.6318 65.748 99.6267 65.7677 99.5403 66.0176C99.4343 66.2624 99.4488 66.2872 99.5394 66.1012C99.7248 65.7933 99.8513 65.4701 99.9509 65.1292C100.163 64.6396 99.8604 65.3152 100.019 64.9898C100.383 64.278 100.433 63.7669 100.63 63.0533C100.682 62.8571 100.792 62.6763 100.836 62.4677C100.885 62.2395 100.595 62.9078 100.901 62.3799C101.029 62.1722 101.142 61.9398 101.255 61.7074L101.604 60.8552C101.716 60.5072 101.739 60.4607 101.627 60.7251C101.423 61.4263 101.803 59.9744 101.997 59.7945C101.867 60.1694 101.859 60.2406 101.985 60.001C102.158 59.7003 102.297 59.3698 102.396 59.029C102.455 58.8451 102.513 58.6613 102.572 58.4775C102.794 57.7494 102.211 59.1376 102.594 58.5146C102.809 58.1726 103.065 57.6737 103.072 57.2876C103.078 56.9851 102.869 57.6223 103.124 57.207C103.51 56.6159 103.617 55.8054 103.784 55.1259C104.249 53.3084 103.124 51.1585 101.22 50.7439C99.316 50.3294 97.3272 51.3602 96.8385 53.3079C96.7666 53.5826 96.6277 53.9131 96.6271 54.196C96.58 54.4562 96.618 54.3509 96.7412 53.8799C96.5601 54.2518 96.3985 54.6288 96.2639 55.0234C96.0244 55.7783 96.48 54.5978 96.2155 55.168C96.0241 55.5791 95.8399 56.0026 95.6877 56.424C95.5736 56.74 95.4048 57.1047 95.6415 56.6006C95.3943 56.9447 95.2203 57.329 95.1125 57.741C95.0159 58.0302 95.0108 58.0498 95.1146 57.773C95.3018 57.2979 95.2134 57.5158 94.8368 58.4341C94.6774 58.8431 94.6949 58.8162 94.8915 58.3855C94.8742 58.6116 94.5856 58.9134 94.4899 59.119C94.1605 59.777 93.8942 60.5145 93.6846 61.2353C93.6456 61.4243 93.6015 61.6329 93.5698 61.8342C93.5103 62.1017 93.5227 62.0944 93.6069 61.8125C93.7335 61.4892 93.7036 61.5233 93.5296 61.9076C93.3753 62.297 93.2087 62.6936 93.0667 63.0758C93.3162 62.0823 92.6993 63.8392 92.7117 63.8319C92.4906 64.4764 93.1338 63.0199 92.7074 63.7679C92.6045 63.9611 92.5088 64.1667 92.4131 64.3722C92.2566 64.7296 92.1075 65.0994 91.9779 65.4743C92.195 64.9651 92.2506 64.8329 92.1446 65.0777C91.8931 65.3578 91.6718 65.803 91.4958 66.1553C91.3022 66.5344 91.1872 66.9341 91.0329 67.3235C91.4607 66.209 90.8239 67.7615 90.7551 67.9845C90.643 68.3326 90.5878 68.664 90.7656 68.1445C90.5679 68.4597 90.4166 68.7974 90.319 69.1702C90.6186 68.5463 90.6968 68.3676 90.5217 68.6363C90.3414 68.9245 90.2076 69.2354 90.1327 69.5618C90.3468 69.1041 90.3674 69.0257 90.2016 69.3387C89.9863 69.6807 89.7052 70.1941 89.6696 70.5307C89.5276 70.9129 89.6028 70.7858 89.9322 70.1277C90.4358 69.2847 90.3564 69.3478 89.6992 70.2974C90.2876 69.5708 90.2351 69.6514 89.5488 70.5515L89.2001 71.4037C89.0612 71.7342 89.6439 70.6288 89.2112 71.2808C88.9486 71.6838 88.8139 72.0783 88.6318 72.5338C88.7656 72.2229 89.0035 71.8344 88.6687 72.3128C88.5337 72.5081 88.3987 72.7034 88.2834 72.9038C87.7396 73.8202 87.5931 74.6205 87.4686 75.6571C87.2318 77.5239 89.2906 79.3103 91.0599 79.2387C93.2007 79.1492 94.393 77.6373 94.6411 75.6476L94.6679 75.6651Z" fill="#C08253"/>
<path d="M103.394 50.7679C103.457 50.4488 103.48 50.1195 103.523 49.7952L103.41 50.709C103.41 50.709 103.44 50.5913 103.463 50.5448L103.114 51.3969C103.114 51.3969 103.154 51.3236 103.172 51.2967C103.189 51.2699 103.207 51.243 103.224 51.2161L102.663 51.9602C102.663 51.9602 102.73 51.9043 102.76 51.8702C102.79 51.8361 102.812 51.7896 102.862 51.7607L102.11 52.3501C102.393 52.1515 102.648 51.9354 102.924 51.7245C102.948 51.71 102.973 51.6955 102.991 51.6686C103.459 51.1621 103.797 50.6321 103.951 49.9598C104.082 49.5013 104.116 49.0491 104.016 48.5929C103.996 48.1057 103.851 47.6589 103.593 47.2453C103.359 46.8171 103.033 46.4594 102.625 46.2163C102.277 45.905 101.871 45.6939 101.402 45.6026L100.488 45.4892C99.8387 45.487 99.2392 45.655 98.6822 45.981L97.9305 46.5704C97.4975 47.0231 97.1917 47.5511 97.0325 48.1593C97.0325 48.1593 97.0274 48.179 97.0223 48.1986L97.371 47.3464C97.371 47.3464 97.3608 47.3857 97.336 47.4002L97.8976 46.6561C97.8976 46.6561 97.8378 46.7243 97.8006 46.7461L98.5524 46.1566C98.2472 46.4017 97.8933 46.5921 97.6491 46.8846C97.6243 46.8991 97.6068 46.926 97.5769 46.9601C97.3285 47.1885 97.1214 47.4593 96.9803 47.7578C96.9628 47.7847 96.9526 47.8239 96.9351 47.8508C96.7599 48.1194 96.5966 48.6637 96.5462 48.7763C96.4217 49.1316 96.415 49.5177 96.3691 49.8935L96.4824 48.9798C96.4824 48.9798 96.4897 48.9921 96.4773 48.9994C96.3468 49.4579 96.3124 49.9101 96.4131 50.3663C96.4324 50.8535 96.5776 51.3003 96.8362 51.714C97.0701 52.1421 97.3958 52.4999 97.8039 52.743C98.1522 53.0543 98.5582 53.2653 99.027 53.3566L99.9407 53.47C100.59 53.4722 101.19 53.3042 101.747 52.9783L102.498 52.3888C102.931 51.9361 103.237 51.4081 103.396 50.7999L103.394 50.7679Z" fill="#C08253"/>
<path d="M93.945 47.5399C93.551 47.8037 93.1839 48.085 92.8654 48.4209L93.6171 47.8315C93.1737 48.1242 92.7323 48.4489 92.3323 48.816C92.1508 48.9886 92.0014 49.1591 91.8003 49.3266L92.552 48.7372C91.893 49.1727 91.2651 49.6897 90.881 50.3963L91.4426 49.6523C91.1395 49.9294 90.8508 50.2312 90.5477 50.5083L91.2995 49.9188C91.054 50.0957 90.8385 50.2384 90.593 50.4153C90.129 50.7865 89.927 51.0377 89.5644 51.5822L90.126 50.8382C89.8694 51.1379 89.6396 51.4551 89.4171 51.7847L89.9786 51.0407C89.7199 51.3084 89.5046 51.6504 89.2873 51.9604L89.8488 51.2164C89.4364 51.5906 89.146 52.0597 88.8214 52.4989L89.383 51.7548C89.0542 52.13 88.65 52.433 88.2871 52.7783L89.0388 52.1889C88.518 52.5767 88.1108 52.9313 87.6706 53.3717C87.4716 53.5712 87.2603 53.7779 87.0417 53.9723L87.7934 53.3829C87.4097 53.6074 87.0746 53.8866 86.7468 54.1781L87.4985 53.5887C87.0891 53.9113 86.6601 54.2288 86.2725 54.5886L87.0242 53.9992C86.7024 54.1875 86.3869 54.4718 86.0941 54.7096C85.4486 55.2535 85.0745 56.403 85.0828 57.2123C85.0903 58.1053 85.4892 59.1846 86.1714 59.7825C86.8535 60.3803 87.7389 60.8427 88.6741 60.7939C89.6929 60.7461 90.4645 60.3611 91.244 59.7055L91.3533 59.6083L90.6016 60.1978C91.0224 59.9515 91.4152 59.5721 91.7925 59.2516L91.0408 59.841C91.3584 59.5887 91.6905 59.3612 91.9936 59.0841L91.2419 59.6735C91.7349 59.3518 92.1793 58.9755 92.6092 58.5743C92.8576 58.3459 93.0575 58.0627 93.3205 57.859L92.5687 58.4484C93.6051 57.6924 94.5021 56.8684 95.2346 55.7918L94.673 56.5358C95.0069 56.141 95.3233 55.7731 95.6355 55.3411L95.0739 56.0852C95.3378 55.7978 95.5603 55.4682 95.7704 55.1458L95.2089 55.8899C95.448 55.617 95.6654 55.307 95.858 55.0115L95.2964 55.7556L95.3438 55.6946L94.5921 56.284C95.1295 55.953 95.5841 55.5374 96.0316 55.1094C96.479 54.6814 96.841 54.4197 97.155 53.8205L96.5934 54.5646C96.6604 54.5087 96.7202 54.4405 96.7872 54.3847L96.0355 54.9741C96.6698 54.5531 97.1232 54.0219 97.7038 53.5659L96.9521 54.1553C97.4173 53.8997 97.8101 53.5203 98.2049 53.1729L97.4532 53.7623L97.5522 53.7044C98.3402 53.1769 98.9606 52.4482 99.207 51.5064C99.4278 50.6627 99.3147 49.5324 98.8285 48.7867C98.3423 48.0409 97.5753 47.3265 96.6429 47.1244C95.7104 46.9223 94.7236 46.968 93.9233 47.5028L93.945 47.5399Z" fill="#C08253"/>
<path d="M87.7202 53.3427C87.3365 53.5672 87.0086 53.8588 86.6539 54.1328L87.4056 53.5434C87.1106 53.7492 86.8012 53.9303 86.5621 54.2032C86.5621 54.2032 86.5373 54.2176 86.525 54.2249L85.9634 54.9689C85.9634 54.9689 85.9387 54.9834 85.9335 55.003C85.9088 55.0175 85.8985 55.0568 85.8934 55.0764C85.8254 55.2158 85.7647 55.3677 85.7164 55.5123C85.6557 55.6641 85.5878 55.8036 85.5395 55.9481C85.4501 56.2497 85.4516 56.5646 85.421 56.8815C85.4188 57.5309 85.5869 58.1305 85.9129 58.6875C86.2388 59.2445 86.6916 59.6775 87.2464 60.0009C87.5325 60.1492 87.8238 60.2779 88.1305 60.3476C88.7976 60.5223 89.3096 60.4885 89.9876 60.3411C90.3302 60.2735 90.6521 60.0852 90.9636 59.9361C91.0255 59.8999 91.0998 59.8564 91.1616 59.8202L90.2795 60.1868C89.974 60.2327 89.6685 60.2785 89.3558 60.312C88.7744 60.1703 88.1858 60.0162 87.5972 59.8621C87.0337 58.5301 86.4631 57.1857 85.8924 55.8413C86.0159 55.5697 86.1321 55.2856 86.2484 55.0016C86.2484 55.0016 86.236 55.0088 86.2309 55.0284L86.7924 54.2844C86.745 54.3454 86.6656 54.4085 86.611 54.4571L87.3627 53.8676C87.2884 53.9111 87.2142 53.9545 87.1399 53.998C86.8057 54.1935 86.515 54.4634 86.217 54.7208L86.9687 54.1314C86.9687 54.1314 86.944 54.1459 86.9192 54.1604L86.1675 54.7498C86.1675 54.7498 86.1427 54.7643 86.1304 54.7715C86.0932 54.7933 86.0757 54.8201 86.0582 54.847L86.8099 54.2575C86.1675 54.7498 85.7343 55.0033 85.3451 55.7295C85.102 56.1376 84.9571 56.5714 84.9422 57.0288C84.8438 57.4852 84.8609 57.9404 85.001 58.4069C85.1162 58.8878 85.3305 59.3108 85.6758 59.6737C85.9396 60.0677 86.2755 60.3862 86.7208 60.6076L87.5729 60.9564C88.1811 61.1156 88.7912 61.1076 89.398 60.952L90.2801 60.5853C90.8371 60.2594 91.27 59.8067 91.5934 59.2519C91.5934 59.2519 91.6058 59.2446 91.6109 59.225L91.0493 59.969C91.0493 59.969 91.0916 59.9277 91.1164 59.9132L90.3646 60.5026C90.64 60.2917 90.905 60.1199 91.1834 59.8574C91.2205 59.8356 91.2555 59.7819 91.2927 59.7602L90.5409 60.3496C90.8534 60.1169 91.1514 59.8595 91.4515 59.634L90.6997 60.2235C90.7616 60.1872 90.8235 60.151 90.8854 60.1148C91.2072 59.9265 91.5001 59.6887 91.766 59.4333C92.2805 58.9495 92.644 58.3214 92.8309 57.647L92.9442 56.7332C92.957 56.2439 92.8562 55.7877 92.6419 55.3647C92.5568 55.0489 92.3975 54.7766 92.1639 54.5477C91.9001 54.1537 91.5641 53.8352 91.1189 53.6138C90.9794 53.5459 90.8276 53.4852 90.683 53.4368C90.2646 53.233 89.8206 53.1273 89.353 53.1516C89.1981 53.1425 89.0382 53.1531 88.8751 53.2152C88.7151 53.2258 88.5552 53.2363 88.3973 53.2788L87.5152 53.6455C87.5152 53.6455 87.5028 53.6527 87.4904 53.6599C87.478 53.6672 87.4657 53.6744 87.4409 53.6889C87.3914 53.7179 87.3419 53.7469 87.2924 53.7758L88.1745 53.4092C88.1745 53.4092 88.125 53.4382 88.1053 53.433L89.0291 53.3079C89.0291 53.3079 89.0167 53.3152 89.0043 53.3224L89.9181 53.4358C89.9181 53.4358 89.9181 53.4358 89.8984 53.4307L90.7506 53.7795L92.5759 56.8989C92.5309 57.1911 92.4932 57.4957 92.4554 57.8003C92.4554 57.8003 92.4554 57.8003 92.4605 57.7807L92.1118 58.6328C92.1118 58.6328 92.1571 58.5398 92.1869 58.5057L91.6254 59.2498C91.6254 59.2498 91.6501 59.2353 91.6553 59.2156L90.9035 59.8051C91.2036 59.5796 91.5089 59.3346 91.8089 59.1091L91.0572 59.6985C91.1439 59.6478 91.2181 59.6044 91.3048 59.5537C91.7328 59.3198 92.0906 58.9941 92.3336 58.586C92.6449 58.2377 92.856 57.8317 92.9472 57.3629C93.0776 56.9044 93.1121 56.4522 93.0113 55.996C92.9921 55.5088 92.8469 55.062 92.5883 54.6484L91.9988 53.8966C91.546 53.4636 91.0181 53.1577 90.4099 52.9985L89.4961 52.8851C88.8468 52.8829 88.2473 53.0509 87.6903 53.3768L87.7202 53.3427Z" fill="#C08253"/>
</g>
<defs>
<clipPath id="clip0_50_14630">
<rect width="130" height="80" fill="white" transform="translate(0 65.6564) rotate(-30.3346)"/>
</clipPath>
</defs>
</svg>
