<svg width="119" height="124" viewBox="0 0 119 124" fill="none" xmlns="http://www.w3.org/2000/svg">
<g clip-path="url(#clip0_50_14660)">
<path d="M36.3646 43.3043C36.9296 43.9788 37.5353 44.6652 37.7238 45.5479C37.812 45.9638 38.0368 46.3417 38.0395 46.7833C38.0421 47.2249 37.758 47.7079 37.8418 48.1733C37.9606 48.8084 38.1033 49.3623 38.3587 49.9595C38.6095 50.5146 38.9565 51.1115 39.0963 51.6985C39.1798 52.0723 39.322 52.4429 39.4912 52.791C39.7932 53.4256 40.3158 53.9214 40.6793 54.5197C40.9992 55.0476 41.355 55.5454 41.6583 56.0718C41.8454 56.4048 42.1286 56.6879 42.3067 57.0285C42.435 57.273 42.5213 57.5221 42.6586 57.7591C42.8909 58.146 43.1923 58.5057 43.4246 58.8926C44.0944 59.9844 44.8483 61.0669 45.3771 62.2462C45.6763 62.9138 45.9093 63.5756 46.27 64.2071C46.6095 64.795 46.9041 65.4206 47.1745 66.0357C47.3422 66.4003 47.5641 66.8113 47.8203 67.117C48.3778 67.7825 48.9042 68.6118 49.5816 69.1462C49.8931 69.3902 50.1073 69.7006 50.4368 69.9295C50.6174 70.0537 50.7802 70.2846 50.9713 70.3848C51.0585 70.4341 51.1441 70.4083 51.2403 70.4501C51.296 70.48 51.3307 70.5581 51.3878 70.5714C51.5638 70.6536 51.7531 70.6786 51.9366 70.7697C52.1201 70.8609 52.2392 71.0213 52.3958 71.135C52.6531 71.3326 52.9108 71.6218 53.2326 71.7502C52.8869 71.703 52.5484 71.4816 52.2626 71.3231C51.9527 71.1542 51.6428 70.9853 51.3419 70.8089C50.6859 70.4096 50.0749 69.9726 49.3786 69.653C49.0267 69.4887 48.6718 69.3575 48.3289 69.1856C48.1378 69.0855 47.9784 69.0048 47.7679 68.9363C47.4432 68.841 47.1588 68.666 46.8356 68.5542C46.4071 68.4082 45.9681 68.2862 45.5307 68.1476C45.1984 68.0434 44.9036 67.8925 44.558 67.8453C44.2454 67.8011 43.9372 67.7073 43.6293 67.7051C43.2793 67.7075 42.9998 67.6662 42.6556 67.6026C41.7719 67.4247 40.9015 67.1897 40.0312 66.9547C38.9654 66.6691 37.8637 66.4137 36.8545 65.9582C36.5177 65.8119 36.1764 65.7152 35.8233 65.6591C35.5693 65.6117 35.2341 65.5405 35.0025 65.4284C34.9393 65.3895 34.8941 65.3356 34.8219 65.3042C34.6294 65.2206 34.3441 65.2454 34.1457 65.2279C33.8062 65.2063 33.5085 65.0884 33.1747 65.0007C32.6456 64.8624 32.1746 64.5377 31.7187 64.231C31.5381 64.1068 31.4581 63.9748 31.2955 63.8356C31.1871 63.7427 31.0474 63.7221 30.9181 63.6774C29.9243 63.3315 28.9484 62.9706 27.9755 62.5767C27.4853 62.3752 26.9802 62.2474 26.5004 62.0218C26.3485 61.9501 26.2239 61.9475 26.0705 61.8923C25.9171 61.8371 25.8192 61.7202 25.6673 61.6485C25.38 61.5066 24.9833 61.4716 24.6841 61.3703C24.1008 61.1856 23.5173 60.9092 22.9444 60.7005C22.3715 60.4917 21.7758 60.1643 21.2268 59.8744C20.7815 59.6352 20.5191 59.2123 20.1936 58.8422C20.0204 58.6354 19.8172 58.4842 19.9426 58.1954C20.0785 57.8826 20.655 57.7669 20.9462 57.676C22.0028 57.3112 23.0943 57.116 24.1388 56.7001C24.709 56.4672 25.599 56.196 26.0499 55.7111C26.5008 55.2262 27.0088 54.7546 27.4612 54.2532C27.7742 53.9144 28.0722 53.5576 28.4079 53.2458C29.1437 52.5528 30.0151 52.0217 30.8986 51.5417C31.7821 51.0616 32.7349 50.646 33.6697 50.2454C34.2579 49.9975 34.8658 49.8096 35.454 49.5617C35.7736 49.4316 36.2991 49.3281 36.0877 48.893C35.9397 48.5885 35.5897 48.5909 35.3697 48.3467C35.1738 48.1129 35.1175 47.8081 35.0431 47.5184C34.9748 47.2542 34.9785 46.9297 34.8516 46.6687C34.7459 46.4512 34.2989 46.1369 34.7416 45.9344C35.015 46.5165 34.9537 47.2107 35.065 47.8368C35.1352 48.2677 35.1964 48.7062 35.2501 49.1356C35.3174 49.5996 35.4613 50.0453 35.5375 50.5018C35.6138 50.9582 35.6405 51.4103 35.7003 51.8653C35.798 52.4569 35.9815 53.1143 35.971 53.7047C35.9731 53.963 35.9991 54.1402 35.8616 54.3779C35.706 54.6307 35.4829 54.8942 35.243 55.0646C35.0031 55.2349 34.7179 55.3514 34.4644 55.4872C34.0189 55.7228 33.6273 55.9131 33.2015 56.2086C32.4008 56.7876 31.5419 57.4614 30.5888 57.7854C30.1686 57.9232 29.7107 58.0161 29.3449 58.2919C29.183 58.4275 29.0452 58.5736 28.8607 58.6823C28.6762 58.7909 28.5216 58.8439 28.3583 58.9961C27.7319 59.5821 29.3825 59.4695 29.6002 59.4554C30.6906 59.3684 31.7595 59.1462 32.8409 59.0667C34.6776 58.9206 36.5657 58.8539 38.4078 59.0247C38.7293 59.0614 40.3886 59.416 40.2786 58.6817C40.2465 58.479 40.0883 58.2902 39.9228 58.184C39.6941 58.0389 39.3394 57.9993 39.0779 57.9429C38.4963 57.8333 37.9103 57.7733 37.3124 57.7538C36.6559 57.7376 35.4567 57.5485 34.9851 58.1732C34.6932 58.5555 34.472 58.9857 34.3726 59.4516C34.2865 59.8604 34.4875 60.3196 34.6027 60.7128C34.7179 61.1061 34.8345 61.4828 35.1492 61.7854C35.4023 62.0325 35.7466 62.1878 36.076 62.3252C36.3091 62.4207 36.5135 62.4637 36.7585 62.5186C37.1838 62.6061 37.5537 62.7553 37.9433 62.9646C38.6443 63.3262 39.3211 63.6774 39.9727 64.1263C40.2556 64.3178 40.5444 64.4432 40.872 64.5054C41.3229 64.5868 41.6877 64.5107 42.0445 64.2424C42.2949 64.048 42.9127 63.6527 42.31 63.4996C42.0003 63.4224 41.6579 63.4338 41.3302 63.3716C40.962 63.2975 40.5651 63.1708 40.2103 63.0396" fill="#C08253"/>
<path d="M34.1162 45.1881C34.4929 45.6377 34.7505 45.9269 34.9622 46.4536L35.1894 47.1815C35.2189 46.3763 35.1781 46.2728 35.0759 46.8634C34.9537 47.2107 34.9306 47.5668 34.924 47.9243C34.8668 49.6098 35.7733 51.0389 36.3135 52.5607C36.9232 54.2384 37.8623 55.4872 38.805 56.9778C39.5577 58.1685 40.2005 59.2828 41.0028 60.4779C42.8787 63.2833 43.7873 66.6697 45.8687 69.3184C46.8121 70.5176 47.8516 71.667 49.0556 72.556C49.3522 72.782 49.662 72.9509 50.005 73.1228C49.2455 72.7643 50.432 73.2854 50.5509 73.3541C50.7961 73.5007 50.3642 73.2044 50.7436 73.5294C51.0146 73.7615 51.2705 73.9756 51.5804 74.1445L54.2363 68.9655C53.0171 68.6248 51.6622 67.4643 50.3748 66.8594C49.0873 66.2545 47.8468 65.7786 46.5178 65.3616C44.9618 64.8745 43.3708 64.7842 41.7985 64.3873C40.2263 63.9904 38.8234 63.4669 37.332 63.0023C36.9186 62.8742 36.4889 62.8363 36.074 62.7247C36.8316 62.9165 36.1805 62.6509 35.8091 62.5182C35.1385 62.2841 34.4222 62.3792 33.774 62.0805C33.7424 62.061 33.2111 61.6644 33.4595 61.8695C33.7381 62.1106 33.5769 61.9548 32.9596 61.4007L32.2827 61.0495C31.5217 60.7076 30.71 60.4694 29.9446 60.177C28.5267 59.6355 27.1325 59.0129 25.6879 58.5856C24.3484 58.1927 23.0989 57.7243 22.2113 56.6467L22.8549 58.0359L22.8359 57.6845L22.3623 59.8413L22.5301 59.6396L21.3339 60.6417C21.664 60.4876 21.7 60.4575 21.4419 60.5513C21.7165 60.4589 21.9897 60.3831 22.2629 60.3073C22.7507 60.1587 23.2446 60.0357 23.731 59.9038C24.6886 59.6218 25.6732 59.3172 26.5704 58.8717C28.5926 57.8508 29.6746 55.6894 31.5853 54.5171C33.3115 53.4535 35.2691 52.9765 37.0633 52.0855C38.379 51.427 39.205 50.1841 39.0118 48.6929C38.8386 47.3535 38.0378 46.7082 37.0309 45.9448L38.0329 47.1409C37.8336 46.7568 37.7948 46.2537 37.6329 45.8231C37.4453 45.3068 37.1588 44.8735 36.8406 44.4207L37.4842 45.8099L37.4506 45.6238L36.4423 48.3664L36.6312 48.2081C35.1055 47.8487 33.586 47.5148 32.0679 47.1643C32.3629 47.9732 32.2625 49.2052 32.442 50.0955C32.5548 50.7051 32.669 51.2981 32.7487 51.9048C32.7885 52.2081 32.8374 52.5039 32.8937 52.8087C32.9868 53.3582 32.8013 54.2329 33.3528 53.174C33.9343 52.0593 32.8957 52.9754 32.4037 53.2651C31.7363 53.656 31.1442 54.1367 30.4993 54.5545C29.9969 54.8683 29.4911 55.0319 28.9479 55.2422C28.6372 55.3647 28.4122 55.4614 28.1317 55.6199C28.5427 55.398 27.0236 56.3799 27.307 56.1884C26.2812 56.8641 25.0584 57.9805 25.3393 59.7042C25.5958 61.3258 26.9997 62.2158 28.5263 62.3754C30.8537 62.6141 33.2702 61.8445 35.6195 61.8352C37.9689 61.8259 40.7112 62.7424 42.3962 60.8256C43.461 59.6121 43.4441 57.7284 42.3954 56.495C41.3467 55.2615 39.7387 54.9865 38.2257 54.8613C35.2252 54.605 32.5409 55.201 31.612 58.4586C30.7947 61.3013 32.7178 64.3275 35.4239 65.1825C38.13 66.0375 40.3504 68.4319 43.2606 66.8814C44.7982 66.0677 45.8441 64.5026 45.3183 62.724C44.7076 60.6798 42.8468 60.8154 41.2079 60.2295C37.655 58.9667 35.652 64.4864 39.2214 65.7506C40.1416 66.0816 41.0778 66.2308 42.0395 66.374L40.6352 65.867L40.8578 65.9866L39.6286 64.0626L39.6395 64.2218L40.1131 62.065C40.4033 61.6076 40.8746 61.4576 41.518 61.6226C41.7481 61.7512 41.6458 61.6839 41.22 61.4131C40.8963 61.1181 40.3715 60.9302 39.9984 60.7224C39.5532 60.4833 37.6934 59.2865 37.209 59.5853C37.042 59.4956 36.9924 59.4912 37.0692 59.5646C37.4068 59.9858 37.4758 59.9586 37.2523 59.4725C37.2394 59.7129 37.3054 61.4176 36.3675 60.627C36.5225 60.7573 37.2388 60.6622 37.4702 60.6826C37.9585 60.7174 38.4543 60.7611 38.9054 60.9341L37.6503 60.0572L37.5898 59.8937L37.3367 58.4223L37.3102 58.6281L38.352 56.638C39.7092 56.358 40.0303 56.2114 39.3077 56.1893C39.1424 56.1747 38.9786 56.1436 38.8058 56.1201C38.4181 56.0775 38.038 56.044 37.6474 56.0345C36.4696 55.9806 35.292 56.0183 34.1129 56.0725C32.9339 56.1268 31.8511 56.2228 30.7218 56.373C30.1828 56.4421 29.6407 56.5442 29.097 56.5712C28.8793 56.5853 28.9378 56.5821 29.2893 56.5631C28.7273 56.5136 28.9349 56.6152 29.894 56.883L31.1232 58.8069L31.1094 58.6808L30.6358 60.8376C29.7301 62.0402 30.4426 61.0454 30.9931 60.7525C31.0801 60.7102 31.6294 60.5255 31.8095 60.4664C32.6964 60.1366 33.4852 59.5982 34.2649 59.0674C35.8964 57.9454 37.9631 57.2699 38.6773 55.2176C39.2454 53.5938 38.6855 51.4457 38.3733 49.7942C38.061 48.1427 37.9797 46.3283 37.3972 44.7196C36.7603 42.9728 34.1572 42.4601 32.849 43.6938C31.2336 45.2003 31.4362 46.8671 32.5943 48.5599L31.9507 47.1707C32.1434 47.9122 32.2251 48.6856 32.5799 49.3831C32.8003 49.8107 33.0596 50.175 33.397 50.5045C33.3593 50.4596 34.2401 51.2368 33.8213 50.7918L33.1778 49.4026L33.2206 49.6728L33.6941 47.516L33.5369 47.6937L34.733 46.6915C31.8554 48.0617 28.694 48.8738 26.3416 51.1814C25.3557 52.1604 24.5808 53.3912 23.2782 53.9009C21.9757 54.4106 20.45 54.6175 19.1492 55.2023C17.2422 56.0501 16.4037 58.283 17.4826 60.1188C18.4104 61.683 19.8804 62.5789 21.4986 63.3046C24.3515 64.5722 27.3925 65.4068 30.2828 66.6278L29.0277 65.7509C30.6408 67.3839 32.365 67.8525 34.5366 68.2522L33.1323 67.7452C33.8366 68.2571 34.8314 68.4031 35.5035 68.6207C36.2236 68.8591 36.9049 69.1607 37.6355 69.375C39.6093 69.9405 41.5617 70.3709 43.5829 70.6825C45.0451 70.9114 46.51 71.5819 47.8545 72.2002C49.3434 72.8812 50.6534 74.0794 52.2454 74.5363C53.6509 74.9351 55.1503 74.4594 55.8198 73.1027C56.419 71.8813 56.1845 70.1034 54.9012 69.3573C54.4258 69.0822 54.0537 68.6746 53.6053 68.3769C53.3059 68.1839 52.9661 68.0707 52.6623 67.9273C53.5181 68.3276 52.0455 67.5564 52.3118 67.7465C51.7475 67.3469 50.6251 66.0986 50.0747 65.2589C49.2452 63.9948 48.6824 62.4461 48.0554 61.0583C47.3076 59.435 46.2088 58.0139 45.3036 56.4767C44.6804 55.4224 44.0228 54.3816 43.3486 53.3395C42.9459 52.7126 42.4005 52.0982 42.0758 51.4367C41.7512 50.7751 41.6292 50.0814 41.3286 49.4303C41.1533 49.0567 40.7929 48.5169 40.7514 48.1385C40.6882 47.5333 41.0361 46.7062 40.8643 45.9165C40.5054 44.2276 39.7085 42.7832 38.601 41.4613C36.175 38.5656 31.6783 42.333 34.1043 45.2287L34.1162 45.1881Z" fill="#C08253"/>
<path d="M18.3571 58.5137C18.3571 58.5137 21.4077 66.5029 54.5296 72.6225C54.5296 72.6225 80.6471 77.0499 89.3312 84.6199C98.0153 92.19 95.1383 100.722 95.1383 100.722C95.1383 100.722 93.1209 105.933 79.6478 101.196C79.6478 101.196 29.7328 82.1944 15.9712 60.6351C15.9712 60.6351 -1.804 33.9747 22.4242 25.2771C22.4242 25.2771 40.0069 20.6319 50.4389 34.9103C50.4766 34.9553 50.5218 35.0092 50.5505 35.0617L44.0797 39.3046C44.0797 39.3046 43.9294 59.4952 73.5981 76.7113C73.5981 76.7113 79.0083 78.8208 80.1074 79.2009C80.1074 79.2009 90.6653 66.774 92.6982 59.4081C94.731 52.0422 91.695 47.9435 86.564 45.7836C86.564 45.7836 83.4317 43.9084 81.4109 39.158C81.4109 39.158 74.5873 24.9481 64.7384 28.1184C64.7384 28.1184 56.6718 30.4383 53.2169 33.3482C52.4435 33.9962 51.5269 34.4733 50.5799 34.8228L50.5619 34.8379" fill="#C08253"/>
<path d="M39.9848 41.6334C39.9848 41.6334 37.4431 57.2159 56.7306 72.7834L73.0782 76.6572C73.0782 76.6572 48.6239 63.1073 44.9238 38.7046L39.9938 41.6259L39.9848 41.6334Z" fill="#502B11"/>
<path d="M54.0903 40.529L48.8164 34.2341L44.3197 38.0015L49.5936 44.2964L54.0903 40.529Z" fill="#C08253"/>
<path d="M46.7056 39.3695C49.1316 42.2651 53.6283 38.4978 51.2023 35.6021C48.7763 32.7065 44.2796 36.4739 46.7056 39.3695Z" fill="#C08253"/>
<path d="M45.5845 40.2785C48.0105 43.1741 52.5072 39.4067 50.0812 36.5111C47.6552 33.6154 43.1585 37.3828 45.5845 40.2785Z" fill="#C08253"/>
<path d="M34.7325 44.8095C37.1585 47.7051 41.6552 43.9377 39.2292 41.0421C36.8032 38.1465 32.3065 41.9138 34.7325 44.8095Z" fill="#C08253"/>
<path d="M52.3974 76.9649C52.6246 77.1265 52.8803 77.249 53.1465 77.3474L52.4696 76.9962C52.7223 77.1518 52.9916 77.3088 53.2818 77.4176L52.6049 77.0665L52.62 77.0844C52.4363 76.9017 52.2435 76.7264 52.0508 76.5512L52.0659 76.5692C51.9271 76.3487 51.7883 76.1283 51.6496 75.9079L51.6722 75.9348C52.8885 74.6097 54.1048 73.2846 55.3211 71.9594L55.306 71.9415C55.5197 72.0686 55.7513 72.1806 55.9739 72.3002C55.9664 72.2912 55.9423 72.2807 55.9183 72.2703L56.4965 72.796C56.4965 72.796 56.4739 72.769 56.4588 72.751L56.8751 73.4123C56.8751 73.4123 56.845 73.3764 56.8404 73.3343L57.0676 74.0622C57.0676 74.0622 57.0629 74.0202 57.0644 74.0037L57.0979 74.7562C57.0979 74.7562 57.0918 74.7306 57.1008 74.7231L56.936 75.4581C56.6501 75.8659 56.3628 76.2903 56.068 76.7057C56.1774 76.5987 56.2522 76.5054 56.3721 76.3744C56.5789 76.2011 56.7226 75.9889 56.8106 75.7468C56.8704 75.6355 56.9302 75.5242 56.9824 75.4039C57.0422 75.2926 57.0704 75.1618 57.0656 75.0281C57.1728 74.6628 57.1973 74.2902 57.1138 73.9164C57.0955 73.8399 56.9228 73.25 56.888 73.172C56.8532 73.094 56.5094 72.5556 56.4566 72.4927L55.8784 71.967L55.8634 71.949C55.8558 71.94 55.8408 71.922 55.8242 71.9205L56.4024 72.4462L56.3949 72.4372C56.1477 72.124 55.8361 71.8799 55.4738 71.7397C55.1503 71.5363 54.794 71.4216 54.4034 71.4121C54.0157 71.3696 53.6463 71.4036 53.2921 71.5473C52.9018 71.6294 52.5612 71.8076 52.263 72.0728L51.7373 72.651C51.4499 73.0754 51.2754 73.543 51.2302 74.0554L51.2637 74.8078C51.3506 75.3318 51.5682 75.7924 51.9072 76.1971L51.9298 76.2241C52.1225 76.3993 52.3153 76.5745 52.508 76.7498C52.6254 76.8351 52.69 76.8574 52.8901 76.95C53.0736 77.0412 53.1683 77.0995 53.3217 77.1547L52.6448 76.8035C52.6448 76.8035 52.6599 76.8215 52.6764 76.8229L52.0982 76.2972C52.0982 76.2972 52.1585 76.3692 52.1886 76.4051C52.3605 76.6285 52.7172 76.9265 52.8497 77.0298C53.0755 77.2079 53.3477 77.3318 53.6138 77.4303C53.662 77.4512 53.7266 77.4735 53.7747 77.4944L53.0979 77.1432C53.0979 77.1432 53.1295 77.1627 53.1445 77.1807L52.5663 76.655C52.5663 76.655 52.6191 76.7179 52.6417 76.7449C52.6567 76.7629 52.6718 76.7809 52.6944 76.8079C52.7938 76.9082 52.8947 76.9921 53.0031 77.0849C53.0935 77.1928 53.1943 77.2767 53.3117 77.362C53.6036 77.546 53.8187 77.6566 54.1857 77.8388C54.2173 77.8583 54.2579 77.8702 54.282 77.8806C54.2895 77.8896 54.3136 77.9001 54.3301 77.9015L54.3452 77.9195C54.5991 77.9669 54.8441 78.0218 55.0891 78.0767C55.1297 78.0887 55.1718 78.084 55.2214 78.0884C55.4962 78.0877 55.7891 78.0719 56.0655 78.0546L55.313 78.0882C55.313 78.0882 55.4046 78.0879 55.4542 78.0923L54.7192 77.9275C54.7192 77.9275 54.8079 77.9603 54.8485 77.9722C54.8561 77.9812 54.8801 77.9917 54.8966 77.9931C55.0274 78.0213 55.1582 78.0495 55.2889 78.0777C55.4182 78.1224 55.549 78.1506 55.6812 78.1623C56.0689 78.2048 56.4383 78.1708 56.7925 78.0271C57.1828 77.945 57.5233 77.7668 57.8216 77.5016C58.1349 77.2544 58.3789 76.9428 58.5192 76.5804C58.7226 76.2569 58.8374 75.9006 58.8469 75.5101L58.8134 74.7576C58.7264 74.2336 58.5089 73.773 58.1698 73.3683L57.5917 72.8426C57.1673 72.5553 56.6997 72.3808 56.1873 72.3357L56.1543 72.3327L56.8892 72.4975C56.8892 72.4975 56.8081 72.4737 56.7765 72.4542C56.5359 72.3497 56.0925 72.2773 55.9528 72.2567C55.6327 72.2035 55.3024 72.2659 54.984 72.2878L55.7365 72.2542C55.7365 72.2542 55.6448 72.2545 55.6042 72.2426L56.3392 72.4073C56.3392 72.4073 56.2265 72.3641 56.1618 72.3417L56.8387 72.6929C56.759 72.6526 56.6972 72.5972 56.634 72.5583L57.2122 73.084C57.2122 73.084 57.152 73.012 57.1218 72.9761C57.1068 72.9581 57.0992 72.9491 57.0842 72.9311C56.9847 72.8307 56.8839 72.7469 56.783 72.663C56.6926 72.5551 56.5842 72.4623 56.4668 72.377L56.4518 72.359C56.2201 72.2469 55.9885 72.1349 55.7659 72.0153C55.7508 71.9973 55.7343 71.9959 55.7102 71.9854C55.6621 71.9645 55.6215 71.9526 55.5734 71.9317L56.2503 72.2829C56.2503 72.2829 56.2111 72.2545 56.1871 72.244L56.7653 72.7697C56.7125 72.7068 56.6673 72.6528 56.6146 72.5899L56.5995 72.5719C56.4068 72.3967 56.2141 72.2214 56.0213 72.0462C56.0138 72.0372 56.0063 72.0282 55.9897 72.0267L55.3129 71.6756C55.3129 71.6756 55.2978 71.6576 55.2813 71.6561C55.2662 71.6381 55.2407 71.6442 55.2166 71.6338L55.8935 71.9849C55.8935 71.9849 55.8709 71.958 55.8544 71.9565L56.4326 72.4822L56.4099 72.4552L51.9133 76.2226C52.1286 76.4248 52.3529 76.6195 52.5697 76.8052L51.9915 76.2795L51.9991 76.2885C51.7816 75.8279 51.573 75.3598 51.3555 74.8992L51.3631 74.9082C51.3978 74.4199 51.4416 73.9241 51.4854 73.4283C51.7713 73.0204 52.0586 72.5961 52.3534 72.1807C52.3444 72.1882 52.3264 72.2033 52.3174 72.2108C52.1332 72.4111 51.9579 72.6038 51.7827 72.7966L51.4314 73.4735C51.2209 73.9713 51.2224 74.521 51.2928 75.0436C51.3511 75.5151 51.6578 76.1917 51.9772 76.5364C52.3884 76.9724 52.7602 77.2884 53.3346 77.4806L54.0695 77.6454L54.822 77.6118L55.55 77.3845C55.9221 77.2258 56.234 76.9951 56.4795 76.667C56.6863 76.4937 56.83 76.2815 56.918 76.0395C57.0616 75.8273 57.1496 75.5852 57.1715 75.3373C57.2595 75.0952 57.2814 74.8473 57.2372 74.5936C57.2542 74.212 57.1782 73.8471 57.0015 73.4901C56.6846 72.9292 56.5035 72.6217 55.9618 72.2491C55.7345 72.0875 55.4699 71.9726 55.2127 71.8666L55.8896 72.2178C55.8896 72.2178 55.8429 72.1804 55.8189 72.1699C55.6006 72.0007 55.3345 71.9023 55.0773 71.7964L55.7542 72.1475L55.7391 72.1296C55.4186 71.8931 55.0727 71.7543 54.694 71.7043C54.3287 71.5971 53.9561 71.5725 53.5823 71.6562C53.1859 71.7128 52.8318 71.8564 52.5199 72.0871C52.1704 72.2728 51.8811 72.5304 51.6507 72.8766L51.2995 73.5535C51.1235 74.0376 51.0887 74.5259 51.1681 75.0409L51.3953 75.7688C51.6189 76.2549 51.958 76.6596 52.3974 76.9649Z" fill="#C08253"/>
<path d="M55.037 77.7225C55.037 77.7225 54.3326 77.7769 54.7232 77.7864C54.1914 77.7728 54.4512 77.7541 54.6753 77.8571C54.8994 77.9602 55.1174 78.0377 55.3444 78.1077L56.0794 78.2725L55.6451 78.1925C55.6451 78.1925 55.8947 78.2895 55.9187 78.2999C56.3292 78.4611 56.7726 78.5335 57.2084 78.5969L55.804 78.0899C56.0177 78.217 57.2387 78.7245 56.1078 78.2333C56.5334 78.4124 56.8404 78.6144 57.2973 78.7213C58.2697 78.932 57.4524 78.8516 57.404 78.7391C57.4312 78.8081 57.8476 78.9031 57.9047 78.9165C58.1978 78.9923 59.0818 79.2618 58.2714 79.0071C58.4985 79.0771 59.6809 79.1731 58.5886 79.0934C58.5225 79.0876 60.1726 79.358 60.1787 79.3836C59.6631 79.2798 59.6631 79.2798 60.1607 79.3986C60.3561 79.4492 60.553 79.4832 60.7574 79.5262C60.6281 79.4815 60.0703 79.2907 60.4958 79.4698C60.7681 79.5938 61.0417 79.7012 61.3244 79.8011C61.6236 79.9024 62.0997 79.8861 62.2954 80.0283C62.491 80.1705 61.7451 79.8465 62.1811 80.0016C62.3751 80.0687 62.5705 80.1192 62.7659 80.1698L63.5009 80.3345C63.7143 80.37 63.6978 80.3686 63.4844 80.3331C63.2724 80.2811 63.2544 80.2961 63.4168 80.3438C63.6905 80.4512 63.9685 80.509 64.257 80.5428C64.6809 80.6468 64.0947 80.4952 64.3788 80.5785C65.0027 80.7751 65.4217 80.7455 66.0242 80.807C66.1895 80.8215 66.3504 80.8857 66.5247 80.8927C66.7155 80.9012 66.1368 80.7586 66.6044 80.9331C66.7894 81.0077 66.9923 81.0672 67.1953 81.1268L67.9302 81.2915C68.2263 81.3343 68.2669 81.3462 68.0384 81.2928C67.4449 81.2238 68.6679 81.3316 68.8395 81.4634C68.5194 81.4101 68.4608 81.4133 68.6713 81.4818C68.9374 81.5803 69.223 81.6471 69.5115 81.6809C69.6678 81.703 69.8241 81.7251 69.9804 81.7472C70.598 81.8267 69.3985 81.546 69.9534 81.7698C70.2586 81.8967 70.6961 82.0352 71.0085 81.9878C71.2532 81.9511 70.7107 81.8699 71.0806 82.0192C71.61 82.2491 72.2784 82.2247 72.8493 82.2668C74.3789 82.3934 75.959 81.1919 76.033 79.5995C76.107 78.007 75.0036 76.5439 73.3659 76.4161C73.1345 76.3957 72.8489 76.3288 72.6207 76.367C72.4044 76.3646 72.4946 76.3809 72.8912 76.4159C72.5665 76.3206 72.2403 76.2418 71.9037 76.1872C71.262 76.0973 72.2765 76.3033 71.7805 76.168C71.4227 76.0698 71.0559 75.9791 70.6953 75.914C70.4247 75.8652 70.1076 75.7789 70.5465 75.9009C70.2352 75.7485 69.9015 75.6608 69.5544 75.6302C69.3079 75.5918 69.2914 75.5903 69.5289 75.6362C69.9377 75.7223 69.7498 75.6807 68.9577 75.5026C68.606 75.4299 68.6301 75.4404 69.0044 75.54C68.8196 75.557 68.5367 75.3655 68.3579 75.3164C67.7821 75.1407 67.1509 75.0267 66.5408 74.9563C66.3831 74.9507 66.2088 74.9436 66.0421 74.9456C65.8182 74.9342 65.8257 74.9432 66.0647 74.9726C66.3427 75.0304 66.3111 75.011 65.9774 74.9232C65.6423 74.852 65.2996 74.7718 64.9719 74.7096C65.8073 74.775 64.306 74.5176 64.3135 74.5266C63.7635 74.4365 65.0261 74.756 64.3645 74.5145C64.1946 74.4578 64.0158 74.4087 63.8369 74.3596C63.5272 74.2824 63.2086 74.2126 62.8885 74.1594C63.3289 74.2649 63.4431 74.2916 63.2312 74.2396C62.9709 74.0751 62.5815 73.9574 62.2733 73.8636C61.9411 73.7594 61.603 73.7212 61.2679 73.65C62.2252 73.8427 60.886 73.5414 60.6967 73.5163C60.4006 73.4736 60.1258 73.4743 60.5691 73.5467C60.2879 73.4303 59.9948 73.3545 59.6807 73.3268C60.2249 73.4831 60.3797 73.5217 60.1391 73.4172C59.882 73.3112 59.6129 73.2459 59.3395 73.2301C59.7379 73.3402 59.804 73.346 59.5288 73.2551C59.2236 73.1282 58.771 72.9717 58.4947 72.989C58.167 72.9268 58.2798 72.97 58.8556 73.1457C59.6044 73.4367 59.5427 73.3812 58.6869 72.981C59.3533 73.3562 59.2812 73.3249 58.4614 72.8944L57.7264 72.7297C57.4408 72.6628 58.412 72.9817 57.827 72.7219C57.4661 72.5651 57.1295 72.5105 56.7372 72.4259C57.0062 72.4913 57.3521 72.63 56.9204 72.4254C56.7445 72.3433 56.5685 72.2611 56.3911 72.1955C55.5776 71.8822 54.9121 71.8735 54.059 71.9148C52.521 71.979 51.3617 73.8838 51.6613 75.3011C52.0263 77.0155 53.4088 77.7704 55.0474 77.6984L55.037 77.7225Z" fill="#C08253"/>
<path d="M76.311 81.3562C76.5769 81.363 76.8457 81.3367 77.1131 81.327L76.3606 81.3605C76.3606 81.3605 76.4598 81.3693 76.5004 81.3812L75.7654 81.2164C75.7654 81.2164 75.83 81.2388 75.8541 81.2492C75.8782 81.2597 75.9022 81.2701 75.9263 81.2806L75.2494 80.9294C75.2494 80.9294 75.3036 80.9758 75.3352 80.9953C75.3668 81.0147 75.4074 81.0266 75.4375 81.0626L74.8593 80.5369C75.0581 80.7376 75.2674 80.9143 75.4752 81.1075C75.4902 81.1255 75.5053 81.1435 75.5294 81.154C76.0019 81.4621 76.4756 81.6622 77.0389 81.6952C77.4266 81.7377 77.7961 81.7037 78.1502 81.56C78.5405 81.4779 78.8811 81.2997 79.1793 81.0345C79.4926 80.7873 79.7367 80.4757 79.8769 80.1134C80.0804 79.7899 80.1951 79.4335 80.2046 79.043L80.1711 78.2905C80.0841 77.7665 79.8666 77.3059 79.5276 76.9012L78.9494 76.3755C78.525 76.0883 78.0574 75.9138 77.5451 75.8686C77.5451 75.8686 77.5285 75.8671 77.512 75.8656L78.247 76.0304C78.247 76.0304 78.2139 76.0275 78.1989 76.0095L78.8758 76.3607C78.8758 76.3607 78.8126 76.3218 78.79 76.2948L79.3682 76.8205C79.1288 76.6079 78.9268 76.3485 78.6575 76.1915C78.6424 76.1736 78.6184 76.1631 78.5868 76.1437C78.3685 75.9745 78.1218 75.8445 77.8618 75.7716C77.8377 75.7611 77.8047 75.7582 77.7806 75.7478C77.54 75.6433 77.0787 75.5859 76.981 75.5606C76.6774 75.5089 76.3651 75.5563 76.0557 75.5706L76.8081 75.5371C76.8081 75.5371 76.7992 75.5446 76.7916 75.5356C76.404 75.4931 76.0345 75.5271 75.6804 75.6708C75.29 75.7529 74.9495 75.9311 74.6513 76.1963C74.338 76.4435 74.0939 76.7551 73.9536 77.1174C73.7502 77.4409 73.6355 77.7973 73.626 78.1878L73.6595 78.9403C73.7464 79.4643 73.9639 79.9249 74.303 80.3296L74.8812 80.8553C75.3055 81.1425 75.7732 81.317 76.2855 81.3622L76.311 81.3562Z" fill="#C08253"/>
<path d="M77.6224 73.2936C77.3558 73.0119 77.0787 72.7543 76.7642 72.5433L77.3424 73.069C77.0457 72.7514 76.7234 72.4398 76.3727 72.1673C76.2086 72.0446 76.0507 71.9474 75.8881 71.8081L76.4663 72.3338C76.0249 71.8618 75.5221 71.4261 74.8996 71.2129L75.5765 71.5641C75.3116 71.3575 75.0287 71.166 74.7638 70.9594L75.342 71.4851C75.1658 71.3114 75.0211 71.157 74.8449 70.9832C74.4821 70.6598 74.2519 70.5312 73.7631 70.3132L74.44 70.6644C74.1632 70.4984 73.8759 70.3564 73.5796 70.2221L74.2565 70.5732C74.0052 70.4012 73.7 70.2743 73.4202 70.1414L74.0971 70.4926C73.7388 70.2111 73.3208 70.041 72.9222 69.8393L73.5991 70.1905C73.2515 69.9766 72.9519 69.692 72.6238 69.4465L73.202 69.9722C72.818 69.6052 72.4762 69.3252 72.0609 69.0304C71.8728 68.8972 71.6771 68.7551 71.4905 68.6053L72.0686 69.131C71.8351 68.8523 71.5641 68.6202 71.2841 68.3956L71.8623 68.9213C71.5461 68.6352 71.2314 68.3326 70.8882 68.0692L71.4664 68.5949C71.2705 68.3611 70.9981 68.1455 70.7662 67.9418C70.2393 67.4956 69.261 67.351 68.6094 67.4684C67.8902 67.5965 67.0742 68.0659 66.6853 68.6978C66.2964 69.3298 66.0445 70.107 66.2117 70.8547C66.3896 71.6698 66.8057 72.2395 67.441 72.7786L67.5343 72.8535L66.9561 72.3278C67.2123 72.6335 67.572 72.8984 67.8821 73.159L67.3039 72.6333C67.5508 72.8549 67.7798 73.0916 68.0447 73.2982L67.4665 72.7725C67.7934 73.1262 68.1577 73.4331 68.54 73.725C68.7582 73.8942 69.0139 74.0167 69.2142 74.2009L68.636 73.6752C69.3875 74.4077 70.1747 75.0185 71.1432 75.462L70.4664 75.1108C70.8304 75.3262 71.1705 75.531 71.5615 75.7238L70.8846 75.3726C71.1525 75.5461 71.4487 75.6805 71.7375 75.8059L71.0606 75.4547C71.3134 75.6103 71.5931 75.7432 71.8578 75.8582L71.1809 75.507L71.2366 75.5369L70.6584 75.0112C70.9989 75.3993 71.3962 75.7092 71.8026 76.0115C72.209 76.3139 72.4695 76.57 72.9957 76.7414L72.3188 76.3902C72.373 76.4366 72.4362 76.4755 72.4904 76.5219L71.9122 75.9962C72.3385 76.4502 72.829 76.7433 73.2762 77.1492L72.698 76.6235C72.9678 76.9638 73.3275 77.2287 73.6616 77.4997L73.0834 76.974L73.1437 77.0459C73.6769 77.6093 74.3495 78.0101 75.1428 78.08C75.8535 78.1427 76.7496 77.897 77.2846 77.4028C77.8196 76.9087 78.2909 76.1924 78.3264 75.4127C78.362 74.633 78.1902 73.8434 77.6494 73.271L77.6224 73.2936Z" fill="#C08253"/>
<path d="M72.091 69.0665C71.8575 68.7877 71.5775 68.5631 71.308 68.3145L71.8861 68.8402C71.6798 68.6305 71.4915 68.4057 71.2387 68.2501C71.2387 68.2501 71.2236 68.2321 71.2161 68.2231L70.5392 67.8719C70.5392 67.8719 70.5241 67.854 70.5076 67.8525C70.4925 67.8345 70.4595 67.8316 70.443 67.8301C70.3212 67.7944 70.1904 67.7662 70.0672 67.747C69.9364 67.7188 69.8147 67.6831 69.6914 67.6639C69.436 67.6331 69.1822 67.6773 68.9224 67.696C68.3984 67.783 67.9378 68.0006 67.5331 68.3396C67.1284 68.6787 66.8411 69.1031 66.6561 69.5948C66.5756 69.8458 66.5117 70.0984 66.4973 70.3553C66.4477 70.9172 66.5449 71.3255 66.7566 71.8522C66.8579 72.1193 67.0538 72.3531 67.2166 72.584C67.2543 72.629 67.2995 72.6829 67.3372 72.7279L66.9209 72.0666C66.8421 71.8264 66.7634 71.5863 66.6937 71.3387C66.7285 70.8504 66.7722 70.3545 66.816 69.8587C67.8133 69.2221 68.8196 68.578 69.8258 67.9339C70.0618 67.9964 70.3068 68.0513 70.5518 68.1062C70.5518 68.1062 70.5443 68.0972 70.5278 68.0958L71.2046 68.447C71.149 68.4171 71.0873 68.3617 71.0406 68.3242L71.6188 68.8499C71.5736 68.796 71.5284 68.742 71.4832 68.6881C71.2797 68.4453 71.0224 68.2477 70.774 68.0426L71.3522 68.5683C71.3522 68.5683 71.3371 68.5503 71.322 68.5323L70.7438 68.0066C70.7438 68.0066 70.7288 67.9886 70.7212 67.9796C70.6986 67.9526 70.6746 67.9422 70.6505 67.9317L71.2287 68.4574C70.7438 68.0066 70.4801 67.6918 69.8412 67.4772C69.4788 67.337 69.1091 67.2794 68.7382 67.33C68.3566 67.313 67.9918 67.3891 67.6347 67.5658C67.2626 67.7245 66.9508 67.9552 66.7053 68.2833C66.4235 68.5499 66.2126 68.8644 66.0949 69.2538L65.9301 69.9888C65.8848 70.5011 65.9747 70.9921 66.1833 71.4602L66.5996 72.1215C66.9386 72.5262 67.363 72.8135 67.8546 72.9984C67.8546 72.9984 67.8622 73.0074 67.8787 73.0089L67.2018 72.6577C67.2018 72.6577 67.2409 72.6861 67.256 72.7041L66.6778 72.1784C66.8856 72.3716 67.0604 72.5619 67.3102 72.7505C67.3328 72.7775 67.3809 72.7984 67.4035 72.8254L66.8253 72.2997C67.0558 72.5199 67.3041 72.725 67.527 72.9362L66.9488 72.4105C66.9865 72.4555 67.0242 72.5004 67.0618 72.5454C67.2577 72.7792 67.4896 72.9829 67.7319 73.1625C68.1925 73.5112 68.7488 73.7185 69.3183 73.7771L70.0708 73.7435C70.4672 73.6869 70.8213 73.5432 71.1332 73.3126C71.3762 73.2008 71.5741 73.035 71.7267 72.8153C72.0084 72.5487 72.2194 72.2341 72.3371 71.8448C72.3728 71.723 72.401 71.5922 72.4202 71.469C72.5274 71.1037 72.552 70.7311 72.4684 70.3573C72.4546 70.2312 72.4242 70.1036 72.3518 69.9806C72.3214 69.853 72.291 69.7254 72.2351 69.6039L71.8188 68.9425C71.8188 68.9425 71.8113 68.9335 71.8037 68.9246C71.7962 68.9156 71.7887 68.9066 71.7736 68.8886C71.7435 68.8526 71.7133 68.8166 71.6832 68.7807L72.0995 69.442C72.0995 69.442 72.0694 69.406 72.0708 69.3895L72.298 70.1174C72.298 70.1174 72.2905 70.1084 72.283 70.0994L72.3165 70.8519C72.3165 70.8519 72.3165 70.8519 72.3179 70.8354L72.1531 71.5704L69.8868 73.4691C69.6449 73.4728 69.3941 73.484 69.1433 73.4952C69.1433 73.4952 69.1433 73.4952 69.1598 73.4966L68.4248 73.3319C68.4248 73.3319 68.506 73.3557 68.5376 73.3751L67.8607 73.0239C67.8607 73.0239 67.8758 73.0419 67.8923 73.0434L67.3141 72.5177C67.537 72.7289 67.7764 72.9415 67.9992 73.1527L67.4211 72.627C67.4738 72.69 67.519 72.7439 67.5717 72.8069C67.8189 73.1202 68.1305 73.3642 68.4929 73.5044C68.8164 73.7078 69.1727 73.8226 69.5633 73.832C69.9509 73.8745 70.3204 73.8405 70.6745 73.6969C71.0648 73.6147 71.4054 73.4365 71.7036 73.1714L72.2294 72.5931C72.5167 72.1688 72.6912 71.7011 72.7365 71.1888L72.703 70.4363C72.616 69.9123 72.3985 69.4517 72.0594 69.047L72.091 69.0665Z" fill="#C08253"/>
</g>
<defs>
<clipPath id="clip0_50_14660">
<rect width="106.347" height="65.4443" fill="white" transform="translate(50.165) rotate(50.0433)"/>
</clipPath>
</defs>
</svg>
