<svg width="119" height="124" viewBox="0 0 119 124" fill="none" xmlns="http://www.w3.org/2000/svg">
<g clip-path="url(#clip0_203_2)">
<path d="M36.3646 43.3043C36.9296 43.9788 37.5353 44.6652 37.7238 45.5479C37.812 45.9638 38.0368 46.3417 38.0395 46.7833C38.0421 47.2249 37.758 47.7079 37.8418 48.1733C37.9606 48.8084 38.1033 49.3623 38.3587 49.9595C38.6095 50.5146 38.9565 51.1115 39.0963 51.6985C39.1798 52.0723 39.322 52.4429 39.4912 52.791C39.7932 53.4256 40.3158 53.9214 40.6793 54.5197C40.9992 55.0476 41.355 55.5454 41.6583 56.0718C41.8454 56.4048 42.1286 56.6879 42.3067 57.0285C42.435 57.273 42.5213 57.5221 42.6586 57.7591C42.8909 58.146 43.1923 58.5057 43.4246 58.8926C44.0944 59.9844 44.8483 61.0669 45.3771 62.2462C45.6763 62.9138 45.9093 63.5756 46.27 64.2071C46.6095 64.795 46.9041 65.4206 47.1745 66.0357C47.3422 66.4003 47.5641 66.8113 47.8203 67.117C48.3778 67.7825 48.9042 68.6118 49.5816 69.1462C49.8931 69.3902 50.1073 69.7006 50.4368 69.9295C50.6174 70.0537 50.7802 70.2846 50.9713 70.3848C51.0585 70.4341 51.1441 70.4083 51.2403 70.4501C51.296 70.48 51.3307 70.5581 51.3878 70.5714C51.5638 70.6536 51.7531 70.6786 51.9366 70.7697C52.1201 70.8609 52.2392 71.0213 52.3958 71.135C52.6531 71.3326 52.9108 71.6218 53.2326 71.7502C52.8869 71.703 52.5484 71.4816 52.2626 71.3231C51.9527 71.1542 51.6428 70.9853 51.3419 70.8089C50.6859 70.4096 50.0749 69.9726 49.3786 69.653C49.0267 69.4887 48.6718 69.3575 48.3289 69.1856C48.1378 69.0855 47.9784 69.0048 47.7679 68.9363C47.4432 68.841 47.1588 68.666 46.8356 68.5542C46.4071 68.4082 45.9681 68.2862 45.5307 68.1476C45.1984 68.0434 44.9036 67.8925 44.558 67.8453C44.2454 67.8011 43.9372 67.7073 43.6293 67.7051C43.2793 67.7075 42.9998 67.6662 42.6556 67.6026C41.7719 67.4247 40.9015 67.1897 40.0312 66.9547C38.9654 66.6691 37.8637 66.4137 36.8545 65.9582C36.5177 65.8119 36.1764 65.7152 35.8233 65.6591C35.5693 65.6117 35.2341 65.5405 35.0025 65.4284C34.9393 65.3895 34.8941 65.3356 34.8219 65.3042C34.6294 65.2206 34.3441 65.2454 34.1457 65.2279C33.8062 65.2063 33.5085 65.0884 33.1747 65.0007C32.6456 64.8624 32.1746 64.5377 31.7187 64.231C31.5381 64.1068 31.4581 63.9748 31.2955 63.8356C31.1871 63.7427 31.0474 63.7221 30.9181 63.6774C29.9243 63.3315 28.9484 62.9706 27.9755 62.5767C27.4853 62.3752 26.9802 62.2474 26.5004 62.0218C26.3485 61.9501 26.2239 61.9475 26.0705 61.8923C25.9171 61.8371 25.8192 61.7202 25.6673 61.6485C25.38 61.5066 24.9833 61.4716 24.6841 61.3703C24.1008 61.1856 23.5173 60.9092 22.9444 60.7005C22.3715 60.4917 21.7758 60.1643 21.2268 59.8744C20.7815 59.6352 20.5191 59.2123 20.1936 58.8422C20.0204 58.6354 19.8172 58.4842 19.9426 58.1954C20.0785 57.8826 20.655 57.7669 20.9462 57.676C22.0028 57.3112 23.0943 57.116 24.1388 56.7001C24.709 56.4672 25.599 56.196 26.0499 55.7111C26.5008 55.2262 27.0088 54.7546 27.4612 54.2532C27.7742 53.9144 28.0722 53.5576 28.4079 53.2458C29.1437 52.5528 30.0151 52.0217 30.8986 51.5417C31.7821 51.0616 32.7349 50.646 33.6697 50.2454C34.2579 49.9975 34.8658 49.8096 35.454 49.5617C35.7736 49.4316 36.2991 49.3281 36.0877 48.893C35.9397 48.5885 35.5897 48.5909 35.3697 48.3467C35.1738 48.1129 35.1175 47.8081 35.0431 47.5184C34.9748 47.2542 34.9785 46.9297 34.8516 46.6687C34.7459 46.4512 34.2989 46.1369 34.7416 45.9344C35.015 46.5165 34.9537 47.2107 35.065 47.8368C35.1352 48.2677 35.1964 48.7062 35.2501 49.1356C35.3174 49.5996 35.4613 50.0453 35.5375 50.5018C35.6138 50.9582 35.6405 51.4103 35.7003 51.8653C35.798 52.4569 35.9815 53.1143 35.971 53.7047C35.9731 53.963 35.9991 54.1402 35.8616 54.3779C35.706 54.6307 35.4829 54.8942 35.243 55.0646C35.0031 55.2349 34.7179 55.3514 34.4644 55.4872C34.0189 55.7228 33.6273 55.9131 33.2015 56.2086C32.4008 56.7876 31.5419 57.4614 30.5888 57.7854C30.1686 57.9232 29.7107 58.0161 29.3449 58.2919C29.183 58.4275 29.0452 58.5736 28.8607 58.6823C28.6762 58.7909 28.5216 58.8439 28.3583 58.9961C27.7319 59.5821 29.3825 59.4695 29.6002 59.4554C30.6906 59.3684 31.7595 59.1462 32.8409 59.0667C34.6776 58.9206 36.5657 58.8539 38.4078 59.0247C38.7293 59.0614 40.3886 59.416 40.2786 58.6817C40.2465 58.479 40.0883 58.2902 39.9228 58.184C39.6941 58.0389 39.3394 57.9993 39.0779 57.9429C38.4963 57.8333 37.9103 57.7733 37.3124 57.7538C36.6559 57.7376 35.4567 57.5485 34.9851 58.1732C34.6932 58.5555 34.472 58.9857 34.3726 59.4516C34.2865 59.8604 34.4875 60.3196 34.6027 60.7128C34.7179 61.1061 34.8345 61.4828 35.1492 61.7854C35.4023 62.0325 35.7466 62.1878 36.076 62.3252C36.3091 62.4207 36.5135 62.4637 36.7585 62.5186C37.1838 62.6061 37.5537 62.7553 37.9433 62.9646C38.6443 63.3262 39.3211 63.6774 39.9727 64.1263C40.2556 64.3178 40.5444 64.4432 40.872 64.5054C41.3229 64.5868 41.6877 64.5107 42.0445 64.2424C42.2949 64.048 42.9127 63.6527 42.31 63.4996C42.0003 63.4224 41.6579 63.4338 41.3302 63.3716C40.962 63.2975 40.5651 63.1708 40.2103 63.0396" fill="#C08253"/>
<path d="M34.1165 45.1881C34.4932 45.6377 34.7508 45.9269 34.9625 46.4536L35.1897 47.1815C35.2191 46.3763 35.1783 46.2728 35.0762 46.8634C34.9539 47.2107 34.9308 47.5668 34.9242 47.9243C34.867 49.6098 35.7735 51.0389 36.3137 52.5607C36.9235 54.2384 37.8625 55.4872 38.8053 56.9778C39.5579 58.1685 40.2007 59.2828 41.003 60.4779C42.879 63.2833 43.7876 66.6697 45.8689 69.3184C46.8124 70.5176 47.8518 71.667 49.0559 72.556C49.3524 72.782 49.6623 72.9509 50.0052 73.1228C49.2457 72.7643 50.4322 73.2854 50.5511 73.3541C50.7963 73.5007 50.3644 73.2044 50.7438 73.5294C51.0148 73.7615 51.2707 73.9756 51.5806 74.1445L54.2365 68.9655C53.0174 68.6248 51.6624 67.4643 50.375 66.8594C49.0876 66.2545 47.8471 65.7786 46.5181 65.3616C44.9621 64.8745 43.3711 64.7842 41.7988 64.3873C40.2265 63.9904 38.8236 63.4669 37.3323 63.0023C36.9188 62.8742 36.4891 62.8363 36.0742 62.7247C36.8318 62.9165 36.1807 62.6509 35.8093 62.5182C35.1388 62.2841 34.4225 62.3792 33.7743 62.0805C33.7427 62.061 33.2114 61.6644 33.4598 61.8695C33.7383 62.1106 33.5772 61.9548 32.9598 61.4007L32.283 61.0495C31.522 60.7076 30.7102 60.4694 29.9448 60.177C28.5269 59.6355 27.1328 59.0129 25.6881 58.5856C24.3487 58.1927 23.0991 57.7243 22.2116 56.6467L22.8551 58.0359L22.8362 57.6845L22.3626 59.8413L22.5303 59.6396L21.3342 60.6417C21.6643 60.4876 21.7002 60.4575 21.4421 60.5513C21.7168 60.4589 21.99 60.3831 22.2631 60.3073C22.751 60.1587 23.2449 60.0357 23.7312 59.9038C24.6889 59.6218 25.6735 59.3172 26.5706 58.8717C28.5929 57.8508 29.6748 55.6894 31.5855 54.5171C33.3117 53.4535 35.2693 52.9765 37.0636 52.0855C38.3793 51.427 39.2052 50.1841 39.0121 48.6929C38.8389 47.3535 38.038 46.7082 37.0311 45.9448L38.0331 47.1409C37.8339 46.7568 37.795 46.2537 37.6332 45.8231C37.4455 45.3068 37.159 44.8735 36.8409 44.4207L37.4844 45.8099L37.4509 45.6238L36.4425 48.3664L36.6314 48.2081C35.1058 47.8487 33.5862 47.5148 32.0681 47.1643C32.3632 47.9732 32.2627 49.2052 32.4423 50.0955C32.555 50.7051 32.6692 51.2981 32.7489 51.9048C32.7888 52.2081 32.8376 52.5039 32.894 52.8087C32.987 53.3582 32.8015 54.2329 33.3531 53.174C33.9345 52.0593 32.8959 52.9754 32.4039 53.2651C31.7365 53.656 31.1444 54.1367 30.4996 54.5545C29.9971 54.8683 29.4913 55.0319 28.9481 55.2422C28.6375 55.3647 28.4124 55.4614 28.1319 55.6199C28.5429 55.398 27.0238 56.3799 27.3072 56.1884C26.2815 56.8641 25.0586 57.9805 25.3395 59.7042C25.5961 61.3258 26.9999 62.2158 28.5265 62.3754C30.854 62.6141 33.2704 61.8445 35.6198 61.8352C37.9691 61.8259 40.7115 62.7424 42.3964 60.8256C43.4613 59.6121 43.4444 57.7284 42.3957 56.495C41.347 55.2615 39.7389 54.9865 38.2259 54.8613C35.2255 54.605 32.5412 55.201 31.6123 58.4586C30.795 61.3013 32.7181 64.3275 35.4242 65.1825C38.1303 66.0375 40.3507 68.4319 43.2608 66.8814C44.7984 66.0677 45.8444 64.5026 45.3185 62.724C44.7078 60.6798 42.847 60.8154 41.2081 60.2295C37.6553 58.9667 35.6522 64.4864 39.2216 65.7506C40.1418 66.0816 41.078 66.2308 42.0398 66.374L40.6354 65.867L40.8581 65.9866L39.6288 64.0626L39.6398 64.2218L40.1133 62.065C40.4036 61.6076 40.8749 61.4576 41.5182 61.6226C41.7484 61.7512 41.646 61.6839 41.2202 61.4131C40.8965 61.1181 40.3718 60.9302 39.9987 60.7224C39.5534 60.4833 37.6937 59.2865 37.2092 59.5853C37.0423 59.4956 36.9927 59.4912 37.0695 59.5646C37.4071 59.9858 37.4761 59.9586 37.2525 59.4725C37.2396 59.7129 37.3056 61.4176 36.3677 60.627C36.5228 60.7573 37.2391 60.6622 37.4705 60.6826C37.9587 60.7174 38.4546 60.7611 38.9057 60.9341L37.6506 60.0572L37.5901 59.8937L37.3369 58.4223L37.3104 58.6281L38.3522 56.638C39.7095 56.358 40.0305 56.2114 39.3079 56.1893C39.1427 56.1747 38.9789 56.1436 38.806 56.1201C38.4184 56.0775 38.0382 56.044 37.6477 56.0345C36.4698 55.9806 35.2922 56.0183 34.1132 56.0725C32.9341 56.1268 31.8513 56.2228 30.7221 56.373C30.183 56.4421 29.641 56.5442 29.0973 56.5712C28.8795 56.5853 28.9381 56.5821 29.2895 56.5631C28.7276 56.5136 28.9352 56.6152 29.8942 56.883L31.1235 58.8069L31.1096 58.6808L30.636 60.8376C29.7304 62.0402 30.4428 61.0454 30.9933 60.7525C31.0804 60.7102 31.6297 60.5255 31.8098 60.4664C32.6967 60.1366 33.4854 59.5982 34.2652 59.0674C35.8966 57.9454 37.9633 57.2699 38.6775 55.2176C39.2456 53.5938 38.6857 51.4457 38.3735 49.7942C38.0613 48.1427 37.98 46.3283 37.3975 44.7196C36.7605 42.9728 34.1574 42.4601 32.8493 43.6938C31.2339 45.2003 31.4365 46.8671 32.5945 48.5599L31.951 47.1707C32.1437 47.9122 32.2253 48.6856 32.5801 49.3831C32.8006 49.8107 33.0599 50.175 33.3972 50.5045C33.3595 50.4596 34.2403 51.2368 33.8216 50.7918L33.178 49.4026L33.2208 49.6728L33.6944 47.516L33.5371 47.6937L34.7332 46.6915C31.8557 48.0617 28.6942 48.8738 26.3418 51.1814C25.356 52.1604 24.581 53.3912 23.2785 53.9009C21.9759 54.4106 20.4503 54.6175 19.1494 55.2023C17.2424 56.0501 16.404 58.283 17.4828 60.1188C18.4107 61.683 19.8806 62.5789 21.4988 63.3046C24.3517 64.5722 27.3927 65.4068 30.2831 66.6278L29.028 65.7509C30.641 67.3839 32.3652 67.8525 34.5369 68.2522L33.1325 67.7452C33.8369 68.2571 34.8317 68.4031 35.5037 68.6207C36.2239 68.8591 36.9051 69.1607 37.6357 69.375C39.6095 69.9405 41.562 70.3709 43.5832 70.6825C45.0454 70.9114 46.5102 71.5819 47.8547 72.2002C49.3436 72.8812 50.6536 74.0794 52.2456 74.5363C53.6512 74.9351 55.1506 74.4594 55.82 73.1027C56.4192 71.8813 56.1848 70.1034 54.9015 69.3573C54.4261 69.0822 54.054 68.6746 53.6056 68.3769C53.3061 68.1839 52.9664 68.0707 52.6626 67.9273C53.5183 68.3276 52.0457 67.5564 52.3121 67.7465C51.7477 67.3469 50.6254 66.0986 50.0749 65.2589C49.2455 63.9948 48.6826 62.4461 48.0556 61.0583C47.3078 59.435 46.2091 58.0139 45.3038 56.4767C44.6807 55.4224 44.023 54.3816 43.3489 53.3395C42.9461 52.7126 42.4008 52.0982 42.0761 51.4367C41.7514 50.7751 41.6294 50.0814 41.3288 49.4303C41.1536 49.0567 40.7932 48.5169 40.7516 48.1385C40.6885 47.5333 41.0363 46.7062 40.8645 45.9165C40.5056 44.2276 39.7088 42.7832 38.6012 41.4613C36.1752 38.5656 31.6786 42.333 34.1045 45.2287L34.1165 45.1881Z" fill="#C08253"/>
<path d="M18.3573 58.5137C18.3573 58.5137 21.4079 66.5029 54.5299 72.6225C54.5299 72.6225 80.6473 77.0499 89.3314 84.6199C98.0155 92.19 95.1385 100.722 95.1385 100.722C95.1385 100.722 93.1212 105.933 79.648 101.196C79.648 101.196 29.7331 82.1944 15.9714 60.6351C15.9714 60.6351 -1.80375 33.9747 22.4245 25.2771C22.4245 25.2771 40.0072 20.6319 50.4392 34.9103C50.4769 34.9553 50.5221 35.0092 50.5507 35.0617L44.08 39.3046C44.08 39.3046 43.9296 59.4952 73.5983 76.7113C73.5983 76.7113 79.0086 78.8208 80.1076 79.2009C80.1076 79.2009 90.6656 66.774 92.6984 59.4081C94.7312 52.0422 91.6952 47.9435 86.5643 45.7836C86.5643 45.7836 83.4319 43.9084 81.4112 39.158C81.4112 39.158 74.5875 24.9481 64.7386 28.1184C64.7386 28.1184 56.672 30.4383 53.2171 33.3482C52.4437 33.9962 51.5271 34.4733 50.5802 34.8228L50.5622 34.8379" fill="#C08253"/>
<path d="M39.9853 41.6333C39.9853 41.6333 37.4436 57.2158 56.7311 72.7833L73.0786 76.6571C73.0786 76.6571 48.6244 63.1072 44.9243 38.7044L39.9943 41.6258L39.9853 41.6333Z" fill="#502B11"/>
<path d="M54.0903 40.5291L48.8164 34.2343L44.3197 38.0016L49.5936 44.2965L54.0903 40.5291Z" fill="#C08253"/>
<path d="M46.7061 39.3696C49.1321 42.2653 53.6288 38.4979 51.2028 35.6023C48.7768 32.7066 44.2801 36.474 46.7061 39.3696Z" fill="#C08253"/>
<path d="M45.5845 40.2785C48.0105 43.1741 52.5072 39.4067 50.0812 36.5111C47.6552 33.6154 43.1585 37.3828 45.5845 40.2785Z" fill="#C08253"/>
<path d="M34.733 44.8093C37.159 47.705 41.6556 43.9376 39.2297 41.042C36.8037 38.1463 32.307 41.9137 34.733 44.8093Z" fill="#C08253"/>
<path d="M52.3974 76.9649C52.6246 77.1265 52.8803 77.249 53.1465 77.3474L52.4696 76.9962C52.7223 77.1518 52.9916 77.3088 53.2818 77.4176L52.6049 77.0665L52.62 77.0844C52.4363 76.9017 52.2435 76.7264 52.0508 76.5512L52.0659 76.5692C51.9271 76.3487 51.7883 76.1283 51.6496 75.9079L51.6722 75.9348C52.8885 74.6097 54.1048 73.2846 55.3211 71.9594L55.306 71.9415C55.5197 72.0686 55.7513 72.1806 55.9739 72.3002C55.9664 72.2912 55.9423 72.2807 55.9183 72.2703L56.4965 72.796C56.4965 72.796 56.4739 72.769 56.4588 72.751L56.8751 73.4123C56.8751 73.4123 56.845 73.3764 56.8404 73.3343L57.0676 74.0622C57.0676 74.0622 57.0629 74.0202 57.0644 74.0037L57.0979 74.7562C57.0979 74.7562 57.0918 74.7306 57.1008 74.7231L56.936 75.4581C56.6501 75.8659 56.3628 76.2903 56.068 76.7057C56.1774 76.5987 56.2522 76.5054 56.3721 76.3744C56.5789 76.2011 56.7226 75.9889 56.8106 75.7468C56.8704 75.6355 56.9302 75.5242 56.9824 75.4039C57.0422 75.2926 57.0704 75.1618 57.0656 75.0281C57.1728 74.6628 57.1973 74.2902 57.1138 73.9164C57.0955 73.8399 56.9228 73.25 56.888 73.172C56.8532 73.094 56.5094 72.5556 56.4566 72.4927L55.8784 71.967L55.8634 71.949C55.8558 71.94 55.8408 71.922 55.8242 71.9205L56.4024 72.4462L56.3949 72.4372C56.1477 72.124 55.8361 71.8799 55.4738 71.7397C55.1503 71.5363 54.794 71.4216 54.4034 71.4121C54.0157 71.3696 53.6463 71.4036 53.2921 71.5473C52.9018 71.6294 52.5612 71.8076 52.263 72.0728L51.7373 72.651C51.4499 73.0754 51.2754 73.543 51.2302 74.0554L51.2637 74.8078C51.3506 75.3318 51.5682 75.7924 51.9072 76.1971L51.9298 76.2241C52.1225 76.3993 52.3153 76.5745 52.508 76.7498C52.6254 76.8351 52.69 76.8574 52.8901 76.95C53.0736 77.0412 53.1683 77.0995 53.3217 77.1547L52.6448 76.8035C52.6448 76.8035 52.6599 76.8215 52.6764 76.8229L52.0982 76.2972C52.0982 76.2972 52.1585 76.3692 52.1886 76.4051C52.3605 76.6285 52.7172 76.9265 52.8497 77.0298C53.0755 77.2079 53.3477 77.3318 53.6138 77.4303C53.662 77.4512 53.7266 77.4735 53.7747 77.4944L53.0979 77.1432C53.0979 77.1432 53.1295 77.1627 53.1445 77.1807L52.5663 76.655C52.5663 76.655 52.6191 76.7179 52.6417 76.7449C52.6567 76.7629 52.6718 76.7809 52.6944 76.8079C52.7938 76.9082 52.8947 76.9921 53.0031 77.0849C53.0935 77.1928 53.1943 77.2767 53.3117 77.362C53.6036 77.546 53.8187 77.6566 54.1857 77.8388C54.2173 77.8583 54.2579 77.8702 54.282 77.8806C54.2895 77.8896 54.3136 77.9001 54.3301 77.9015L54.3452 77.9195C54.5991 77.9669 54.8441 78.0218 55.0891 78.0767C55.1297 78.0887 55.1718 78.084 55.2214 78.0884C55.4962 78.0877 55.7891 78.0719 56.0655 78.0546L55.313 78.0882C55.313 78.0882 55.4046 78.0879 55.4542 78.0923L54.7192 77.9275C54.7192 77.9275 54.8079 77.9603 54.8485 77.9722C54.8561 77.9812 54.8801 77.9917 54.8966 77.9931C55.0274 78.0213 55.1582 78.0495 55.2889 78.0777C55.4182 78.1224 55.549 78.1506 55.6812 78.1623C56.0689 78.2048 56.4383 78.1708 56.7925 78.0271C57.1828 77.945 57.5233 77.7668 57.8216 77.5016C58.1349 77.2544 58.3789 76.9428 58.5192 76.5804C58.7226 76.2569 58.8374 75.9006 58.8469 75.5101L58.8134 74.7576C58.7264 74.2336 58.5089 73.773 58.1698 73.3683L57.5917 72.8426C57.1673 72.5553 56.6997 72.3808 56.1873 72.3357L56.1543 72.3327L56.8892 72.4975C56.8892 72.4975 56.8081 72.4737 56.7765 72.4542C56.5359 72.3497 56.0925 72.2773 55.9528 72.2567C55.6327 72.2035 55.3024 72.2659 54.984 72.2878L55.7365 72.2542C55.7365 72.2542 55.6448 72.2545 55.6042 72.2426L56.3392 72.4073C56.3392 72.4073 56.2265 72.3641 56.1618 72.3417L56.8387 72.6929C56.759 72.6526 56.6972 72.5972 56.634 72.5583L57.2122 73.084C57.2122 73.084 57.152 73.012 57.1218 72.9761C57.1068 72.9581 57.0992 72.9491 57.0842 72.9311C56.9847 72.8307 56.8839 72.7469 56.783 72.663C56.6926 72.5551 56.5842 72.4623 56.4668 72.377L56.4518 72.359C56.2201 72.2469 55.9885 72.1349 55.7659 72.0153C55.7508 71.9973 55.7343 71.9959 55.7102 71.9854C55.6621 71.9645 55.6215 71.9526 55.5734 71.9317L56.2503 72.2829C56.2503 72.2829 56.2111 72.2545 56.1871 72.244L56.7653 72.7697C56.7125 72.7068 56.6673 72.6528 56.6146 72.5899L56.5995 72.5719C56.4068 72.3967 56.2141 72.2214 56.0213 72.0462C56.0138 72.0372 56.0063 72.0282 55.9897 72.0267L55.3129 71.6756C55.3129 71.6756 55.2978 71.6576 55.2813 71.6561C55.2662 71.6381 55.2407 71.6442 55.2166 71.6338L55.8935 71.9849C55.8935 71.9849 55.8709 71.958 55.8544 71.9565L56.4326 72.4822L56.4099 72.4552L51.9133 76.2226C52.1286 76.4248 52.3529 76.6195 52.5697 76.8052L51.9915 76.2795L51.9991 76.2885C51.7816 75.8279 51.573 75.3598 51.3555 74.8992L51.3631 74.9082C51.3978 74.4199 51.4416 73.9241 51.4854 73.4283C51.7713 73.0204 52.0586 72.5961 52.3534 72.1807C52.3444 72.1882 52.3264 72.2033 52.3174 72.2108C52.1332 72.4111 51.9579 72.6038 51.7827 72.7966L51.4314 73.4735C51.2209 73.9713 51.2224 74.521 51.2928 75.0436C51.3511 75.5151 51.6578 76.1917 51.9772 76.5364C52.3884 76.9724 52.7602 77.2884 53.3346 77.4806L54.0695 77.6454L54.822 77.6118L55.55 77.3845C55.9221 77.2258 56.234 76.9951 56.4795 76.667C56.6863 76.4937 56.83 76.2815 56.918 76.0395C57.0616 75.8273 57.1496 75.5852 57.1715 75.3373C57.2595 75.0952 57.2814 74.8473 57.2372 74.5936C57.2542 74.212 57.1782 73.8471 57.0015 73.4901C56.6846 72.9292 56.5035 72.6217 55.9618 72.2491C55.7345 72.0875 55.4699 71.9726 55.2127 71.8666L55.8896 72.2178C55.8896 72.2178 55.8429 72.1804 55.8189 72.1699C55.6006 72.0007 55.3345 71.9023 55.0773 71.7964L55.7542 72.1475L55.7391 72.1296C55.4186 71.8931 55.0727 71.7543 54.694 71.7043C54.3287 71.5971 53.9561 71.5725 53.5823 71.6562C53.1859 71.7128 52.8318 71.8564 52.5199 72.0871C52.1704 72.2728 51.8811 72.5304 51.6507 72.8766L51.2995 73.5535C51.1235 74.0376 51.0887 74.5259 51.1681 75.0409L51.3953 75.7688C51.6189 76.2549 51.958 76.6596 52.3974 76.9649Z" fill="#C08253"/>
<path d="M55.0372 77.7223C55.0372 77.7223 54.3328 77.7768 54.7234 77.7863C54.1916 77.7727 54.4515 77.754 54.6755 77.857C54.8996 77.96 55.1176 78.0376 55.3447 78.1076L56.0796 78.2723L55.6453 78.1924C55.6453 78.1924 55.8949 78.2894 55.919 78.2998C56.3295 78.4609 56.7728 78.5333 57.2086 78.5968L55.8043 78.0898C56.0179 78.2169 57.239 78.7244 56.1081 78.2332C56.5336 78.4123 56.8406 78.6143 57.2975 78.7212C58.27 78.9319 57.4526 78.8515 57.4042 78.739C57.4315 78.808 57.8478 78.903 57.9049 78.9164C58.198 78.9922 59.082 79.2617 58.2717 79.007C58.4987 79.077 59.6811 79.173 58.5889 79.0933C58.5228 79.0875 60.1728 79.3579 60.1789 79.3834C59.6634 79.2797 59.6634 79.2797 60.1609 79.3985C60.3563 79.4491 60.5532 79.4831 60.7576 79.5261C60.6283 79.4814 60.0705 79.2906 60.4961 79.4697C60.7683 79.5937 61.042 79.7011 61.3246 79.801C61.6238 79.9023 62.1 79.886 62.2956 80.0282C62.4913 80.1704 61.7454 79.8464 62.1814 80.0015C62.3753 80.0685 62.5707 80.1191 62.7662 80.1696L63.5011 80.3344C63.7145 80.3699 63.698 80.3684 63.4846 80.333C63.2727 80.2809 63.2547 80.296 63.417 80.3437C63.6907 80.4511 63.9688 80.5089 64.2573 80.5427C64.6811 80.6467 64.0949 80.4951 64.379 80.5784C65.0029 80.775 65.422 80.7454 66.0245 80.8068C66.1898 80.8214 66.3507 80.8856 66.5249 80.8926C66.7157 80.9011 66.137 80.7585 66.6046 80.933C66.7896 81.0076 66.9926 81.0671 67.1955 81.1267L67.9305 81.2914C68.2265 81.3342 68.2671 81.3461 68.0386 81.2926C67.4451 81.2236 68.6681 81.3315 68.8397 81.4632C68.5196 81.41 68.4611 81.4132 68.6715 81.4817C68.9377 81.5801 69.2233 81.647 69.5118 81.6808C69.668 81.7029 69.8243 81.725 69.9806 81.7471C70.5982 81.8266 69.3987 81.5459 69.9536 81.7697C70.2589 81.8966 70.6964 82.0351 71.0087 81.9877C71.2535 81.951 70.711 81.8698 71.0809 82.019C71.6102 82.2489 72.2786 82.2246 72.8496 82.2667C74.3791 82.3932 75.9592 81.1918 76.0332 79.5994C76.1072 78.0069 75.0038 76.5438 73.3661 76.416C73.1348 76.3956 72.8492 76.3287 72.6209 76.3669C72.4046 76.3645 72.4948 76.3807 72.8915 76.4157C72.5667 76.3205 72.2406 76.2417 71.9039 76.187C71.2623 76.0971 72.2768 76.3032 71.7807 76.1678C71.423 76.0697 71.0562 75.979 70.6955 75.9139C70.425 75.865 70.1078 75.7788 70.5468 75.9008C70.2354 75.7484 69.9017 75.6607 69.5546 75.63C69.3082 75.5916 69.2916 75.5902 69.5291 75.6361C69.9379 75.7221 69.75 75.6806 68.9579 75.5025C68.6062 75.4298 68.6303 75.4402 69.0046 75.5399C68.8199 75.5569 68.537 75.3654 68.3581 75.3163C67.7823 75.1406 67.1511 75.0266 66.5411 74.9561C66.3833 74.9506 66.209 74.9435 66.0423 74.9455C65.8185 74.934 65.826 74.943 66.0649 74.9724C66.343 75.0303 66.3114 75.0108 65.9777 74.9231C65.6425 74.8519 65.2998 74.7717 64.9722 74.7095C65.8075 74.7748 64.3062 74.5175 64.3137 74.5265C63.7637 74.4363 65.0264 74.7559 64.3648 74.5143C64.1949 74.4577 64.016 74.4086 63.8371 74.3595C63.5275 74.2822 63.2088 74.2125 62.8887 74.1593C63.3292 74.2647 63.4434 74.2915 63.2314 74.2395C62.9711 74.0749 62.5818 73.9573 62.2736 73.8635C61.9413 73.7592 61.6033 73.7211 61.2681 73.6499C62.2255 73.8426 60.8863 73.5413 60.6969 73.5162C60.4009 73.4735 60.126 73.4742 60.5693 73.5466C60.2881 73.4302 59.995 73.3544 59.681 73.3267C60.2252 73.4829 60.38 73.5216 60.1394 73.4171C59.8822 73.3111 59.6132 73.2457 59.3397 73.2299C59.7381 73.34 59.8042 73.3459 59.5291 73.255C59.2238 73.1281 58.7713 72.9716 58.4949 72.9889C58.1673 72.9267 58.28 72.9699 58.8558 73.1456C59.6047 73.4365 59.5429 73.3811 58.6872 72.9808C59.3536 73.3561 59.2814 73.3247 58.4616 72.8943L57.7266 72.7296C57.441 72.6627 58.4123 72.9816 57.8273 72.7218C57.4663 72.565 57.1297 72.5103 56.7374 72.4258C57.0065 72.4911 57.3523 72.6299 56.9207 72.4253C56.7447 72.3431 56.5687 72.261 56.3913 72.1954C55.5778 71.8821 54.9124 71.8734 54.0592 71.9147C52.5212 71.9789 51.362 73.8837 51.6616 75.3009C52.0266 77.0154 53.409 77.7703 55.0477 77.6983L55.0372 77.7223Z" fill="#C08253"/>
<path d="M76.3113 81.3562C76.5772 81.363 76.846 81.3367 77.1133 81.327L76.3609 81.3605C76.3609 81.3605 76.46 81.3693 76.5006 81.3812L75.7656 81.2164C75.7656 81.2164 75.8303 81.2388 75.8543 81.2492C75.8784 81.2597 75.9025 81.2701 75.9265 81.2806L75.2496 80.9294C75.2496 80.9294 75.3038 80.9758 75.3354 80.9953C75.367 81.0147 75.4076 81.0266 75.4378 81.0626L74.8596 80.5369C75.0584 80.7376 75.2676 80.9143 75.4754 81.1075C75.4905 81.1255 75.5056 81.1435 75.5296 81.154C76.0021 81.4621 76.4758 81.6622 77.0392 81.6952C77.4269 81.7377 77.7963 81.7037 78.1504 81.56C78.5408 81.4779 78.8813 81.2997 79.1796 81.0345C79.4929 80.7873 79.7369 80.4757 79.8772 80.1134C80.0806 79.7899 80.1954 79.4335 80.2049 79.043L80.1714 78.2905C80.0844 77.7665 79.8669 77.3059 79.5278 76.9012L78.9496 76.3755C78.5253 76.0883 78.0577 75.9138 77.5453 75.8686C77.5453 75.8686 77.5288 75.8671 77.5123 75.8656L78.2472 76.0304C78.2472 76.0304 78.2142 76.0275 78.1991 76.0095L78.876 76.3607C78.876 76.3607 78.8128 76.3218 78.7902 76.2948L79.3684 76.8205C79.129 76.6079 78.927 76.3485 78.6577 76.1915C78.6427 76.1736 78.6186 76.1631 78.587 76.1437C78.3688 75.9745 78.1221 75.8445 77.862 75.7716C77.838 75.7611 77.8049 75.7582 77.7808 75.7478C77.5402 75.6433 77.0789 75.5859 76.9812 75.5606C76.6776 75.5089 76.3653 75.5563 76.0559 75.5706L76.8084 75.5371C76.8084 75.5371 76.7994 75.5446 76.7919 75.5356C76.4042 75.4931 76.0348 75.5271 75.6806 75.6708C75.2903 75.7529 74.9497 75.9311 74.6515 76.1963C74.3382 76.4435 74.0942 76.7551 73.9539 77.1174C73.7504 77.4409 73.6357 77.7973 73.6262 78.1878L73.6597 78.9403C73.7467 79.4643 73.9642 79.9249 74.3032 80.3296L74.8814 80.8553C75.3058 81.1425 75.7734 81.317 76.2857 81.3622L76.3113 81.3562Z" fill="#C08253"/>
<path d="M77.6229 73.2936C77.3563 73.0119 77.0792 72.7543 76.7647 72.5433L77.3429 73.069C77.0462 72.7514 76.7239 72.4398 76.3732 72.1673C76.2091 72.0446 76.0512 71.9474 75.8886 71.8081L76.4668 72.3338C76.0254 71.8618 75.5225 71.4261 74.9001 71.2129L75.577 71.5641C75.3121 71.3575 75.0292 71.166 74.7642 70.9594L75.3424 71.4851C75.1662 71.3114 75.0216 71.157 74.8454 70.9832C74.4826 70.6598 74.2524 70.5312 73.7636 70.3132L74.4405 70.6644C74.1637 70.4984 73.8764 70.3564 73.5801 70.2221L74.257 70.5732C74.0057 70.4012 73.7004 70.2743 73.4207 70.1414L74.0976 70.4926C73.7393 70.2111 73.3213 70.041 72.9227 69.8393L73.5996 70.1905C73.252 69.9766 72.9524 69.692 72.6243 69.4465L73.2024 69.9722C72.8184 69.6052 72.4767 69.3252 72.0614 69.0304C71.8732 68.8972 71.6776 68.7551 71.4909 68.6053L72.0691 69.131C71.8356 68.8523 71.5646 68.6202 71.2846 68.3956L71.8628 68.9213C71.5466 68.6352 71.2319 68.3326 70.8887 68.0692L71.4669 68.5949C71.271 68.3611 70.9985 68.1455 70.7667 67.9418C70.2398 67.4956 69.2615 67.351 68.6099 67.4684C67.8907 67.5965 67.0747 68.0659 66.6858 68.6978C66.2969 69.3298 66.045 70.107 66.2122 70.8547C66.3901 71.6698 66.8061 72.2395 67.4414 72.7786L67.5348 72.8535L66.9566 72.3278C67.2127 72.6335 67.5725 72.8984 67.8826 73.159L67.3044 72.6333C67.5513 72.8549 67.7802 73.0916 68.0452 73.2982L67.467 72.7725C67.7939 73.1262 68.1582 73.4331 68.5405 73.725C68.7587 73.8942 69.0144 74.0167 69.2147 74.2009L68.6365 73.6752C69.388 74.4077 70.1752 75.0185 71.1437 75.462L70.4668 75.1108C70.8309 75.3262 71.1709 75.531 71.562 75.7238L70.8851 75.3726C71.153 75.5461 71.4492 75.6805 71.738 75.8059L71.0611 75.4547C71.3139 75.6103 71.5936 75.7432 71.8583 75.8582L71.1814 75.507L71.2371 75.5369L70.6589 75.0112C70.9994 75.3993 71.3967 75.7092 71.8031 76.0115C72.2095 76.3139 72.47 76.57 72.9962 76.7414L72.3193 76.3902C72.3735 76.4366 72.4367 76.4755 72.4909 76.5219L71.9127 75.9962C72.339 76.4502 72.8295 76.7433 73.2767 77.1492L72.6985 76.6235C72.9682 76.9638 73.3279 77.2287 73.6621 77.4997L73.0839 76.974L73.1442 77.0459C73.6774 77.6093 74.3499 78.0101 75.1433 78.08C75.8539 78.1427 76.7501 77.897 77.2851 77.4028C77.8201 76.9087 78.2914 76.1924 78.3269 75.4127C78.3624 74.633 78.1906 73.8434 77.6499 73.271L77.6229 73.2936Z" fill="#C08253"/>
<path d="M72.0913 69.0665C71.8577 68.7877 71.5777 68.5631 71.3082 68.3145L71.8864 68.8402C71.68 68.6305 71.4917 68.4057 71.2389 68.2501C71.2389 68.2501 71.2239 68.2321 71.2163 68.2231L70.5394 67.8719C70.5394 67.8719 70.5244 67.854 70.5078 67.8525C70.4928 67.8345 70.4597 67.8316 70.4432 67.8301C70.3214 67.7944 70.1907 67.7662 70.0674 67.747C69.9367 67.7188 69.8149 67.6831 69.6917 67.6639C69.4362 67.6331 69.1825 67.6773 68.9227 67.696C68.3986 67.783 67.938 68.0006 67.5333 68.3396C67.1286 68.6787 66.8413 69.1031 66.6563 69.5948C66.5759 69.8458 66.5119 70.0984 66.4976 70.3553C66.448 70.9172 66.5452 71.3255 66.7568 71.8522C66.8582 72.1193 67.0541 72.3531 67.2169 72.584C67.2546 72.629 67.2998 72.6829 67.3374 72.7279L66.9211 72.0666C66.8424 71.8264 66.7637 71.5863 66.6939 71.3387C66.7287 70.8504 66.7725 70.3545 66.8162 69.8587C67.8135 69.2221 68.8198 68.578 69.8261 67.9339C70.0621 67.9964 70.3071 68.0513 70.5521 68.1062C70.5521 68.1062 70.5445 68.0972 70.528 68.0958L71.2049 68.447C71.1492 68.4171 71.0875 68.3617 71.0408 68.3242L71.619 68.8499C71.5738 68.796 71.5286 68.742 71.4834 68.6881C71.28 68.4453 71.0226 68.2477 70.7742 68.0426L71.3524 68.5683C71.3524 68.5683 71.3373 68.5503 71.3223 68.5323L70.7441 68.0066C70.7441 68.0066 70.729 67.9886 70.7215 67.9796C70.6989 67.9526 70.6748 67.9422 70.6508 67.9317L71.229 68.4574C70.7441 68.0066 70.4804 67.6918 69.8414 67.4772C69.479 67.337 69.1094 67.2794 68.7385 67.33C68.3569 67.313 67.992 67.3891 67.635 67.5658C67.2629 67.7245 66.951 67.9552 66.7055 68.2833C66.4238 68.5499 66.2128 68.8644 66.0951 69.2538L65.9303 69.9888C65.8851 70.5011 65.975 70.9921 66.1835 71.4602L66.5998 72.1215C66.9388 72.5262 67.3632 72.8135 67.8549 72.9984C67.8549 72.9984 67.8624 73.0074 67.8789 73.0089L67.2021 72.6577C67.2021 72.6577 67.2412 72.6861 67.2563 72.7041L66.6781 72.1784C66.8859 72.3716 67.0606 72.5619 67.3105 72.7505C67.3331 72.7775 67.3812 72.7984 67.4038 72.8254L66.8256 72.2997C67.056 72.5199 67.3044 72.725 67.5273 72.9362L66.9491 72.4105C66.9867 72.4555 67.0244 72.5004 67.0621 72.5454C67.258 72.7792 67.4898 72.9829 67.7321 73.1625C68.1927 73.5112 68.749 73.7185 69.3185 73.7771L70.071 73.7435C70.4674 73.6869 70.8216 73.5432 71.1334 73.3126C71.3765 73.2008 71.5743 73.035 71.727 72.8153C72.0087 72.5487 72.2197 72.2341 72.3373 71.8448C72.3731 71.723 72.4013 71.5922 72.4205 71.469C72.5277 71.1037 72.5522 70.7311 72.4687 70.3573C72.4548 70.2312 72.4244 70.1036 72.352 69.9806C72.3216 69.853 72.2913 69.7254 72.2354 69.6039L71.8191 68.9425C71.8191 68.9425 71.8115 68.9335 71.804 68.9246C71.7965 68.9156 71.7889 68.9066 71.7739 68.8886C71.7437 68.8526 71.7136 68.8166 71.6834 68.7807L72.0998 69.442C72.0998 69.442 72.0696 69.406 72.0711 69.3895L72.2983 70.1174C72.2983 70.1174 72.2908 70.1084 72.2832 70.0994L72.3167 70.8519C72.3167 70.8519 72.3167 70.8519 72.3182 70.8354L72.1534 71.5704L69.887 73.4691C69.6452 73.4728 69.3944 73.484 69.1435 73.4952C69.1435 73.4952 69.1435 73.4952 69.16 73.4966L68.4251 73.3319C68.4251 73.3319 68.5062 73.3557 68.5378 73.3751L67.861 73.0239C67.861 73.0239 67.876 73.0419 67.8926 73.0434L67.3144 72.5177C67.5372 72.7289 67.7766 72.9415 67.9995 73.1527L67.4213 72.627C67.474 72.69 67.5192 72.7439 67.572 72.8069C67.8191 73.1202 68.1307 73.3642 68.4931 73.5044C68.8166 73.7078 69.1729 73.8226 69.5635 73.832C69.9512 73.8745 70.3206 73.8405 70.6747 73.6969C71.0651 73.6147 71.4056 73.4365 71.7039 73.1714L72.2296 72.5931C72.5169 72.1688 72.6915 71.7011 72.7367 71.1888L72.7032 70.4363C72.6162 69.9123 72.3987 69.4517 72.0597 69.047L72.0913 69.0665Z" fill="#C08253"/>
</g>
<defs>
<clipPath id="clip0_203_2">
<rect width="106.347" height="65.4443" fill="white" transform="translate(50.165) rotate(50.0433)"/>
</clipPath>
</defs>
</svg>
