<svg width="170" height="171" viewBox="0 0 170 171" fill="none" xmlns="http://www.w3.org/2000/svg">
<g clip-path="url(#clip0_157_156)">
<path d="M102.696 25.5508C110.253 28.0967 116.34 32.9068 122.024 38.2855C132.006 47.7386 140.069 58.6824 144.47 71.7233C150.931 90.9181 147.257 108.448 133.618 123.38C126.932 130.701 119.678 137.51 110.773 142.303C100.45 147.859 89.4933 148.923 78.2009 146.661C59.9363 142.997 45.0379 133.657 35.0764 117.811C24.7863 101.456 21.9526 83.7959 29.7889 65.6172C35.0585 53.3607 42.2472 42.3339 52.2766 33.2661C66.0812 20.7891 87.5634 17.3449 102.707 25.5426C101.617 25.4026 100.496 25.373 99.4412 25.1039C82.9405 21.0557 68.162 23.9677 55.5678 35.6744C54.7271 36.4636 54.2558 37.663 53.6174 38.6691C67.9889 31.2951 75.5088 29.0064 87.0387 28.9416C90.6564 28.9196 94.4192 28.2576 97.858 29.0717C101.77 29.9943 105.361 32.2884 109.157 33.8452C110.175 34.2622 111.417 34.1642 112.554 34.3008C112.637 34.0155 112.72 33.7302 112.794 33.4343C108.796 31.6606 106.683 26.3303 100.894 27.801C101.592 26.9361 102.153 26.2446 102.707 25.5426L102.696 25.5508ZM52.9944 88.3475C51.7452 89.046 50.5147 89.747 48.9268 90.6406C50.2796 92.5994 51.5276 94.4015 53.1888 96.8007C54.1553 93.5842 54.9028 91.0649 55.7458 88.2333C54.481 88.2808 53.6573 88.3086 52.8336 88.3364C55.2679 87.0742 57.1957 85.5083 56.3877 82.1401C54.1122 83.5849 51.9422 84.9479 48.9532 86.8451C50.9051 87.5731 51.9539 87.9656 53.0027 88.3581L52.9944 88.3475ZM64.1404 107.915C63.6926 108.144 63.0156 108.687 62.8041 108.545C60.6745 107.088 58.6256 105.517 56.083 103.616C55.4396 108.009 54.8827 111.775 54.1597 116.741C58.5836 115.276 62.2337 114.056 66.2801 112.714C65.4261 110.81 64.7574 109.34 64.1074 107.873C65.273 107.545 66.4363 107.237 67.602 106.909C67.636 107.41 67.67 107.911 67.6935 108.419C68.0105 106.456 68.3274 104.492 68.7323 101.967C65.8422 102.512 63.3123 102.998 60.6966 103.483L64.1321 107.905L64.1404 107.915ZM36.3495 78.7828C37.8009 77.213 40.2559 75.7817 40.4972 74.0468C41.1612 68.9396 40.9531 63.7109 41.0456 58.5207C41.0521 58.3115 40.6327 58.0763 39.8846 57.3311C39.1727 59.4827 38.3258 61.1779 38.0859 62.9798C37.3741 68.2431 36.9042 73.5566 36.3426 78.8392C36.0327 73.7405 35.7146 68.6312 35.4137 63.8486C30.7863 70.1647 28.461 83.5345 31.3195 91.6523C33.1941 86.8629 34.7759 82.8282 36.36 78.7746L36.3495 78.7828ZM45.0655 83.778C44.5043 83.1427 43.9455 82.4887 42.9654 81.3796C40.1413 86.0565 37.5404 90.3899 34.9419 94.7045C43.4166 92.2521 45.7017 89.4054 45.0945 83.6194C46.0713 84.8331 46.7913 87.6746 48.6848 85.9993C53.1687 82.0224 59.9146 79.4338 59.0629 71.4402C56.6467 72.3992 53.9738 72.9626 51.8908 74.394C48.6198 76.6463 44.1764 78.3471 45.0655 83.778ZM122.563 50.7729C120.736 49.1828 118.917 47.6032 117.09 46.013C116.664 46.3782 116.24 46.7247 115.813 47.0899C116.59 48.6119 117.377 50.1257 118.154 51.6478C114.894 53.8919 115.805 57.5883 115.174 60.7144C115.074 61.217 116.103 62.2369 116.816 62.5672C120.535 64.2859 124.339 65.8533 128.326 67.5682C128.891 65.1399 129.447 62.9396 129.908 60.7272C131.327 53.9797 129.419 51.4151 122.544 50.7705L122.563 50.7729ZM108.904 73.816C100.58 75.6578 92.803 77.2452 85.118 79.1691C82.796 79.7489 79.7907 80.6895 78.6964 82.4579C76.0346 86.8216 74.3047 91.7537 72.2011 96.4659C72.4492 96.6983 72.6786 96.9282 72.9267 97.1605C81.777 94.7564 90.6593 92.4805 99.4387 89.8764C101.083 89.3813 102.853 87.8525 103.644 86.3028C105.602 82.4691 107.03 78.3668 108.904 73.816ZM42.0211 70.8732C42.3908 70.8921 42.7499 70.9192 43.1114 70.9274C53.5081 61.8973 63.9049 52.8672 74.304 43.8183C74.0894 43.3898 73.8643 42.9696 73.6415 42.5305C71.7784 42.6347 69.751 42.2883 68.0886 42.9338C61.8527 45.3302 55.6406 47.8441 49.637 50.7572C47.4768 51.8064 44.8776 53.7919 44.298 55.8746C42.9433 60.7022 42.7135 65.846 42.0129 70.8626L42.0211 70.8732ZM137.249 66.2807C139.889 85.6049 137.349 104.073 129.598 121.862C130.953 121.081 132.054 120.192 133.045 119.183C139.435 112.655 141.927 104.069 144.248 95.7196C147.183 85.158 144.976 75.0717 137.258 66.2913L137.249 66.2807ZM104.282 118.609C100.266 118.923 96.7535 119.102 93.2799 119.505C91.7607 119.682 89.8696 119.859 88.8579 120.798C84.3955 124.912 80.2037 129.308 75.6613 133.84C84.771 134.534 97.3503 132.055 104.282 118.609ZM81.3595 76.1376C81.5655 76.4027 81.7692 76.6866 81.9646 76.9599C90.1201 75.0106 98.2756 73.0613 106.873 71.0065C105.168 68.8116 103.731 66.9184 102.251 65.0579C100.893 63.3753 89.7632 62.2793 88.174 63.6501C88.0897 63.7156 88.0548 63.8448 88.0057 63.9339C85.7903 68.0018 83.5667 72.0591 81.3618 76.1188L81.3595 76.1376ZM74.3107 82.2094C69.6762 83.4466 65.385 84.4511 61.1861 85.7919C60.0451 86.1512 58.6022 87.3403 58.3583 88.3971C57.4706 92.2156 57.0373 96.1403 56.331 100.736C60.3033 99.8434 63.6052 99.2845 66.7888 98.2904C68.1079 97.8777 69.74 96.7797 70.1819 95.5861C71.7703 91.3421 72.903 86.9251 74.319 82.22L74.3107 82.2094ZM115.754 87.9638C104.383 91.7144 100.881 102.308 95.4765 111.388C96.7038 111.335 97.7522 111.031 98.5863 110.451C103.361 107.132 108.12 103.792 112.805 100.356C117.595 96.8385 118.291 93.6446 115.744 87.972L115.754 87.9638ZM107.727 123.891C107.958 124.102 108.188 124.332 108.419 124.543C123.846 118.135 135.943 103.482 134.004 94.2412C125.382 103.967 116.558 113.934 107.727 123.891ZM129.34 113.849C118.791 120.464 108.314 127.04 97.2784 133.964C106.179 133.17 114.005 131.035 121.252 127.003C122.594 126.25 124.293 125.456 124.941 124.222C126.693 120.82 127.98 117.168 129.34 113.849ZM90.7151 33.4992C90.517 33.0919 90.3272 32.6953 90.1396 32.2799C78.3848 31.5331 67.1425 33.1431 56.6201 39.6181C57.2135 39.9902 57.4053 40.2153 57.5602 40.197C66.2862 39.3519 75.0408 38.7395 83.7048 37.4665C86.1811 37.1069 88.382 34.8698 90.7151 33.4992ZM39.434 95.3294C38.7235 96.0685 37.2397 97.3573 36.1063 98.9012C35.5331 99.6866 35.223 101.05 35.4972 101.925C35.6769 102.483 37.1882 102.992 38.0459 102.921C42.2459 102.582 46.4091 102 50.5996 101.584C52.6561 101.381 53.0573 100.287 52.511 98.5177C50.3084 91.3527 46.4108 90.0788 40.425 94.5595C40.3301 94.6332 40.2458 94.6987 39.434 95.3294ZM80.6073 67.4886C74.337 71.255 68.3227 74.5676 62.6804 78.4243C61.0566 79.5328 60.4913 82.1996 59.4409 84.1551C59.7688 84.3594 60.0989 84.545 60.4268 84.7494C69.3245 82.0364 78.7906 80.0551 80.6073 67.4886ZM105.186 42.7464C102.575 45.914 100.312 48.6586 98.2612 51.1535C100.346 55.0772 103.12 55.0136 106.316 53.8397C108.234 53.1317 110.23 52.5672 112.252 52.2544C114.616 51.8804 115.435 50.2579 115.117 48.4131C114.899 47.1538 113.726 45.5999 112.58 45.0614C110.225 43.9665 107.606 43.4678 105.194 42.757L105.186 42.7464ZM95.7028 96.0779C95.5788 95.7661 95.4631 95.4649 95.3392 95.1531C87.5616 97.1318 79.7758 99.1 72.0018 101.127C71.6477 101.215 71.1993 101.682 71.1262 102.045C70.5929 104.84 70.1242 107.653 69.5268 111.127C78.8243 105.774 87.2594 100.921 95.7028 96.0779ZM119.237 104.218C126.69 99.9066 133.99 86.8038 132.635 79.5758C128.229 88.2017 120.571 94.0329 119.237 104.218ZM86.7891 143.049C99.1819 143.181 110.594 140.658 120.056 132.166C119.067 132.22 118.12 132.48 117.266 132.905C109.717 136.679 101.639 138.467 93.2916 139.255C90.6579 139.499 87.6988 139.129 86.7973 143.06L86.7891 143.049ZM72.6183 59.7519C78.4127 57.2225 84.1965 54.7012 90.0202 52.166C85.6496 47.2805 85.7004 47.4111 80.0707 49.6086C75.434 51.4086 74.8169 56.0541 72.6183 59.7519ZM113.821 72.5292C115.145 75.7347 116.227 78.3459 117.391 81.1489C121.845 77.9604 125.775 75.0769 128.181 69.2963C123.061 70.4519 118.843 71.3991 113.813 72.5186L113.821 72.5292ZM37.5277 105.67C37.3574 106.125 37.1954 106.591 37.0251 107.047C41.171 109.641 45.3274 112.227 50.3053 115.349C50.248 111.38 50.1945 108.548 50.1458 105.287C46.661 105.393 42.1037 105.532 37.5359 105.681L37.5277 105.67ZM81.0865 122.415C77.4911 123.423 73.8898 124.402 70.3205 125.509C69.7459 125.683 68.9909 126.474 68.9745 126.996C68.903 129.059 69.0967 131.136 69.2005 133.402C75.6534 131.959 77.5565 126.314 81.0865 122.415ZM107.318 36.4819C97.8292 32.342 92.5016 32.2302 89.4829 36.004C98.7417 39.2171 105.092 39.4698 107.318 36.4819ZM103.927 56.9881C103.811 57.4695 103.713 57.9534 103.597 58.4348C106.477 59.5302 109.367 60.6174 112.576 61.8315C113.294 58.6211 113.888 55.9485 114.647 52.6384C110.622 54.2689 107.269 55.6326 103.927 56.9881ZM78.0305 113.107C86.5105 116.994 89.5757 115.564 92.3023 106.78C87.6017 108.868 83.0734 110.873 78.0305 113.107ZM63.0433 58.8081C56.6443 63.2357 51.7619 67.8963 47.6358 73.3127C51.2722 71.2696 54.5388 68.6635 58.2158 66.912C61.5693 65.3098 61.9807 62.5755 63.035 58.7975L63.0433 58.8081ZM48.887 118.049C44.3282 115.01 39.7965 111.984 34.3998 108.389C36.8724 112.029 38.6886 114.954 40.7496 117.672C43.1401 120.814 45.5011 120.85 48.887 118.049ZM52.5343 126.812C57.2863 128.664 61.4828 130.301 65.8706 132.01C65.7692 130.269 65.6724 128.491 65.5561 126.405C61.1665 126.499 56.9851 124.272 52.5343 126.812ZM85.5102 139.554C80.936 138.976 76.7338 138.398 72.5342 137.953C71.7912 137.867 71.0002 138.329 70.2204 138.544C70.6139 139.224 70.8332 140.159 71.4078 140.529C74.4798 142.546 77.7605 142.939 81.194 141.462C82.5234 140.888 83.8468 140.285 85.5102 139.554ZM115.011 63.9866C114.606 66.2062 114.275 68.0441 113.905 70.1346C118.42 69.6362 122.481 69.1844 126.551 68.7432C126.541 68.5129 126.531 68.2825 126.521 68.0522C122.791 66.733 119.051 65.422 114.992 63.9841L115.011 63.9866ZM64.6804 122.732C64.3134 118.8 61.5859 118.096 59.5129 118.278C57.5173 118.451 55.6663 120.247 53.7608 121.319C53.9285 121.818 54.0963 122.317 54.2641 122.816C57.6728 122.786 61.0628 122.754 64.691 122.724L64.6804 122.732ZM89.1444 55.4992C83.5437 58.0822 78.6616 60.328 73.7877 62.5844C73.9446 62.9386 74.1038 63.274 74.2607 63.6283C79.065 61.2389 85.9085 63.3017 89.1338 55.5074L89.1444 55.4992ZM127.35 80.6722C131.645 79.8686 132.339 76.6934 132.964 73.7765C133.167 72.8195 131.921 71.5427 131.345 70.4091C130.966 70.4654 130.576 70.5299 130.198 70.5862C129.3 73.7831 128.384 76.9775 127.35 80.6722ZM114.301 83.6345C113.374 81.8546 112.554 80.2984 111.305 77.8852C110.204 81.3422 109.383 83.9189 108.57 86.5061C108.875 86.6599 109.189 86.8243 109.505 86.9699C110.964 85.9548 112.414 84.9478 114.311 83.6263L114.301 83.6345ZM65.4 73.1994C68.7708 70.9885 71.5605 69.1611 75.0872 66.8462C68.3959 66.6546 66.7767 67.7256 65.4 73.1994ZM28.2855 71.5806C28.7823 71.8067 29.298 72.0352 29.7949 72.2613C31.8695 67.7076 33.9524 63.1645 36.0376 58.6026C35.6593 58.4204 35.2787 58.257 34.9005 58.0747C32.699 62.574 30.4869 67.0814 28.2855 71.5806ZM54.6033 45.3342C49.4458 45.7024 46.865 47.5375 45.9063 52.0914L54.6033 45.3342ZM98.9919 44.4131C98.9138 44.1168 98.8168 43.818 98.7387 43.5216C96.4259 44.0262 94.1048 44.5202 91.2431 45.1452C92.8268 46.4654 93.926 47.3798 95.2075 48.4417C96.5572 47.002 97.7651 45.7064 98.9919 44.4131ZM103.182 63.1444L109.213 70.9062C109.621 67.1884 106.142 63.038 103.182 63.1444ZM115.475 42.4553C112.96 37.999 110.234 37.2766 106.938 39.7357C109.655 40.6003 112.171 41.4007 115.475 42.4553ZM71.2238 54.4757C70.9394 54.3055 70.6445 54.1436 70.3601 53.9734C67.5451 56.0075 66.8745 59.3003 65.5458 62.2031L66.5505 62.7999L71.2238 54.4757ZM118.738 83.3838C123.265 83.574 124.231 81.2928 124.187 77.9941C122.581 79.5822 120.974 81.1703 118.738 83.3838ZM68.7682 116.461C68.9297 116.777 69.0912 117.094 69.2527 117.411C71.1089 117.363 72.9652 117.315 74.8214 117.267C74.8991 116.867 74.9745 116.485 75.0522 116.085C73.5715 115.637 72.1055 114.99 70.6067 114.845C70.0516 114.784 69.3911 115.892 68.7682 116.461ZM130.563 67.2924C131.215 67.3475 131.864 67.4213 132.515 67.4764C132.67 65.0432 132.828 62.5913 132.983 60.1582C132.567 60.1239 132.17 60.092 131.755 60.0577C131.364 62.4701 130.954 64.88 130.563 67.2924ZM87.6634 47.3483C89.5249 49.0479 90.95 50.3382 92.3894 51.6686C93.7998 49.1104 92.1403 47.4749 87.6634 47.3483Z" fill="#EECC87"/>
</g>
<defs>
<clipPath id="clip0_157_156">
<rect width="119" height="123" fill="white" transform="translate(0.251953 73.5337) rotate(-37.8457)"/>
</clipPath>
</defs>
</svg>
